<svg xmlns="http://www.w3.org/2000/svg" xmlns:xlink="http://www.w3.org/1999/xlink" width="1920" zoomAndPan="magnify" viewBox="0 0 1440 675.000002" height="900" preserveAspectRatio="xMidYMid meet" version="1.0"><defs><g/><clipPath id="136a56654b"><path d="M 1.066406 0 L 1438.933594 0 L 1438.933594 674 L 1.066406 674 Z M 1.066406 0 " clip-rule="nonzero"/></clipPath><clipPath id="aaf0b3a668"><path d="M 0.492188 0.0898438 L 1269.175781 0.0898438 L 1269.175781 355 L 0.492188 355 Z M 0.492188 0.0898438 " clip-rule="nonzero"/></clipPath><clipPath id="0c3660eec0"><rect x="0" width="1270" y="0" height="355"/></clipPath><clipPath id="105282dd07"><path d="M 219 317 L 1117 317 L 1117 389.992188 L 219 389.992188 Z M 219 317 " clip-rule="nonzero"/></clipPath><clipPath id="92f16d7d75"><rect x="0" width="898" y="0" height="73"/></clipPath><clipPath id="48ab8d98ba"><path d="M 896 172 L 983 172 L 983 260 L 896 260 Z M 896 172 " clip-rule="nonzero"/></clipPath><clipPath id="f4f5d86ff9"><path d="M 909.097656 121.242188 L 1017.324219 148.089844 L 987.09375 269.953125 L 878.867188 243.105469 Z M 909.097656 121.242188 " clip-rule="nonzero"/></clipPath><clipPath id="d34f3f7c86"><path d="M 909.097656 121.242188 L 1017.324219 148.089844 L 987.09375 269.953125 L 878.867188 243.105469 Z M 909.097656 121.242188 " clip-rule="nonzero"/></clipPath><clipPath id="8e85fb395c"><path d="M 941 134 L 975 134 L 975 175 L 941 175 Z M 941 134 " clip-rule="nonzero"/></clipPath><clipPath id="19c09d0530"><path d="M 909.097656 121.242188 L 1017.324219 148.089844 L 987.09375 269.953125 L 878.867188 243.105469 Z M 909.097656 121.242188 " clip-rule="nonzero"/></clipPath><clipPath id="c40732f995"><path d="M 909.097656 121.242188 L 1017.324219 148.089844 L 987.09375 269.953125 L 878.867188 243.105469 Z M 909.097656 121.242188 " clip-rule="nonzero"/></clipPath><clipPath id="87609ca434"><path d="M 963 176 L 1006 176 L 1006 206 L 963 206 Z M 963 176 " clip-rule="nonzero"/></clipPath><clipPath id="4124b9b24a"><path d="M 909.097656 121.242188 L 1017.324219 148.089844 L 987.09375 269.953125 L 878.867188 243.105469 Z M 909.097656 121.242188 " clip-rule="nonzero"/></clipPath><clipPath id="cc473a12c6"><path d="M 909.097656 121.242188 L 1017.324219 148.089844 L 987.09375 269.953125 L 878.867188 243.105469 Z M 909.097656 121.242188 " clip-rule="nonzero"/></clipPath><clipPath id="6252c2670e"><path d="M 896 160 L 940 160 L 940 193 L 896 193 Z M 896 160 " clip-rule="nonzero"/></clipPath><clipPath id="5ab2d2f5d7"><path d="M 909.097656 121.242188 L 1017.324219 148.089844 L 987.09375 269.953125 L 878.867188 243.105469 Z M 909.097656 121.242188 " clip-rule="nonzero"/></clipPath><clipPath id="6297fc9c81"><path d="M 909.097656 121.242188 L 1017.324219 148.089844 L 987.09375 269.953125 L 878.867188 243.105469 Z M 909.097656 121.242188 " clip-rule="nonzero"/></clipPath><clipPath id="6fdb94ab1a"><path d="M 913 149 L 927 149 L 927 162 L 913 162 Z M 913 149 " clip-rule="nonzero"/></clipPath><clipPath id="316815cdff"><path d="M 909.097656 121.242188 L 1017.324219 148.089844 L 987.09375 269.953125 L 878.867188 243.105469 Z M 909.097656 121.242188 " clip-rule="nonzero"/></clipPath><clipPath id="d251740a38"><path d="M 909.097656 121.242188 L 1017.324219 148.089844 L 987.09375 269.953125 L 878.867188 243.105469 Z M 909.097656 121.242188 " clip-rule="nonzero"/></clipPath><clipPath id="dd9e54b36d"><path d="M 983 169 L 998 169 L 998 180 L 983 180 Z M 983 169 " clip-rule="nonzero"/></clipPath><clipPath id="707ac75654"><path d="M 909.097656 121.242188 L 1017.324219 148.089844 L 987.09375 269.953125 L 878.867188 243.105469 Z M 909.097656 121.242188 " clip-rule="nonzero"/></clipPath><clipPath id="67eb3b0f18"><path d="M 909.097656 121.242188 L 1017.324219 148.089844 L 987.09375 269.953125 L 878.867188 243.105469 Z M 909.097656 121.242188 " clip-rule="nonzero"/></clipPath><clipPath id="84d2fd1bce"><rect x="0" width="1270" y="0" height="390"/></clipPath></defs><g clip-path="url(#136a56654b)"><path fill="#ffffff" d="M 1.066406 0 L 1438.933594 0 L 1438.933594 674 L 1.066406 674 Z M 1.066406 0 " fill-opacity="1" fill-rule="nonzero"/><path fill="#ffffff" d="M 1.066406 0 L 1438.933594 0 L 1438.933594 674 L 1.066406 674 Z M 1.066406 0 " fill-opacity="1" fill-rule="nonzero"/></g><g transform="matrix(1, 0, 0, 1, 89, 102)"><g clip-path="url(#84d2fd1bce)"><g clip-path="url(#aaf0b3a668)"><g transform="matrix(1, 0, 0, 1, -0.000000000000014211, -0.000000000000042633)"><g clip-path="url(#0c3660eec0)"><g fill="#292b2a" fill-opacity="1"><g transform="translate(0.633137, 247.750332)"><g><path d="M 3.1875 -173.28125 L 60.125 -173.28125 C 68.84375 -173.28125 77.328125 -171.863281 85.578125 -169.03125 C 93.828125 -166.207031 100.601562 -161.789062 105.90625 -155.78125 C 111.21875 -149.769531 113.875 -141.691406 113.875 -131.546875 C 113.875 -124.953125 111.925781 -119 108.03125 -113.6875 C 104.144531 -108.382812 99.253906 -104.023438 93.359375 -100.609375 C 87.460938 -97.191406 81.453125 -95.007812 75.328125 -94.0625 C 83.816406 -93.351562 92.421875 -91.171875 101.140625 -87.515625 C 109.859375 -83.867188 117.101562 -78.742188 122.875 -72.140625 C 128.65625 -65.535156 131.546875 -57.285156 131.546875 -47.390625 C 131.546875 -37.960938 129.539062 -30.125 125.53125 -23.875 C 121.53125 -17.625 116.171875 -12.789062 109.453125 -9.375 C 102.734375 -5.957031 95.363281 -3.539062 87.34375 -2.125 C 79.332031 -0.707031 71.4375 0 63.65625 0 L 3.1875 0 C 9.082031 -2.59375 12.734375 -6.539062 14.140625 -11.84375 C 15.554688 -17.144531 16.265625 -22.507812 16.265625 -27.9375 C 16.265625 -35.25 16.265625 -42.203125 16.265625 -48.796875 C 16.265625 -55.398438 16.972656 -61.53125 18.390625 -67.1875 C 19.804688 -72.84375 22.632812 -77.851562 26.875 -82.21875 C 31.125 -86.582031 37.609375 -90.0625 46.328125 -92.65625 C 34.535156 -96.425781 26.515625 -101.785156 22.265625 -108.734375 C 18.023438 -115.691406 15.90625 -125.066406 15.90625 -136.859375 C 15.90625 -141.335938 15.90625 -145.929688 15.90625 -150.640625 C 15.90625 -155.359375 15.019531 -159.78125 13.25 -163.90625 C 11.488281 -168.03125 8.132812 -171.15625 3.1875 -173.28125 Z M 36.421875 -170.453125 L 36.421875 -115.28125 C 36.421875 -110.09375 38.1875 -105.257812 41.71875 -100.78125 C 45.257812 -96.300781 49.625 -94.0625 54.8125 -94.0625 C 66.601562 -94.0625 75.796875 -97.363281 82.390625 -103.96875 C 88.992188 -110.570312 92.296875 -119.765625 92.296875 -131.546875 C 92.296875 -141.921875 89.40625 -151 83.625 -158.78125 C 77.851562 -166.5625 69.425781 -170.453125 58.34375 -170.453125 Z M 36.078125 -69.3125 L 36.078125 -2.828125 L 68.953125 -2.828125 C 81.691406 -2.828125 91.421875 -7.1875 98.140625 -15.90625 C 104.859375 -24.632812 108.21875 -35.007812 108.21875 -47.03125 C 108.21875 -59.53125 104.679688 -70.019531 97.609375 -78.5 C 90.535156 -86.988281 80.394531 -91.234375 67.1875 -91.234375 L 56.234375 -91.234375 C 50.804688 -91.234375 46.085938 -88.9375 42.078125 -84.34375 C 38.078125 -79.75 36.078125 -74.738281 36.078125 -69.3125 Z M 36.078125 -69.3125 "/></g></g></g><g fill="#292b2a" fill-opacity="1"><g transform="translate(136.784536, 247.750332)"><g><path d="M 8.140625 -61.890625 C 8.140625 -73.441406 10.96875 -83.875 16.625 -93.1875 C 22.28125 -102.5 29.820312 -109.984375 39.25 -115.640625 C 48.6875 -121.296875 59.0625 -124.125 70.375 -124.125 C 81.925781 -124.125 92.359375 -121.296875 101.671875 -115.640625 C 110.984375 -109.984375 118.46875 -102.5 124.125 -93.1875 C 129.78125 -83.875 132.609375 -73.441406 132.609375 -61.890625 C 132.609375 -50.335938 129.835938 -39.90625 124.296875 -30.59375 C 118.765625 -21.28125 111.34375 -13.789062 102.03125 -8.125 C 92.71875 -2.46875 82.285156 0.359375 70.734375 0.359375 C 59.410156 0.359375 48.972656 -2.46875 39.421875 -8.125 C 29.878906 -13.789062 22.28125 -21.28125 16.625 -30.59375 C 10.96875 -39.90625 8.140625 -50.335938 8.140625 -61.890625 Z M 66.484375 -120.59375 C 57.765625 -120.59375 50.570312 -117.644531 44.90625 -111.75 C 39.25 -105.851562 35.125 -98.71875 32.53125 -90.34375 C 29.9375 -81.976562 28.640625 -74.023438 28.640625 -66.484375 C 28.640625 -60.117188 29.582031 -53.28125 31.46875 -45.96875 C 33.351562 -38.664062 36.125 -31.710938 39.78125 -25.109375 C 43.4375 -18.503906 48.09375 -13.140625 53.75 -9.015625 C 59.40625 -4.890625 66.007812 -2.828125 73.5625 -2.828125 C 82.519531 -2.828125 89.707031 -5.773438 95.125 -11.671875 C 100.550781 -17.566406 104.5625 -24.753906 107.15625 -33.234375 C 109.75 -41.722656 111.046875 -49.625 111.046875 -56.9375 C 111.046875 -63.300781 110.160156 -70.132812 108.390625 -77.4375 C 106.617188 -84.75 103.90625 -91.707031 100.25 -98.3125 C 96.601562 -104.914062 91.945312 -110.28125 86.28125 -114.40625 C 80.625 -118.53125 74.023438 -120.59375 66.484375 -120.59375 Z M 66.484375 -120.59375 "/></g></g></g><g fill="#292b2a" fill-opacity="1"><g transform="translate(275.411397, 247.750332)"><g><path d="M 90.171875 -123.78125 C 95.597656 -123.78125 99.898438 -122.1875 103.078125 -119 C 106.265625 -115.8125 107.859375 -111.628906 107.859375 -106.453125 L 107.859375 -24.75 C 107.859375 -22.394531 108.210938 -19.625 108.921875 -16.4375 C 109.628906 -13.257812 110.804688 -10.488281 112.453125 -8.125 C 114.109375 -5.769531 116.46875 -4.59375 119.53125 -4.59375 C 124.25 -4.59375 127.90625 -7.066406 130.5 -12.015625 C 133.09375 -16.972656 134.625 -21.335938 135.09375 -25.109375 L 136.5 -24.75 C 135.5625 -18.15625 133.207031 -12.265625 129.4375 -7.078125 C 125.664062 -1.890625 120.003906 0.703125 112.453125 0.703125 C 105.148438 0.703125 99.671875 -1.710938 96.015625 -6.546875 C 92.359375 -11.378906 90.53125 -17.210938 90.53125 -24.046875 C 85.582031 -16.734375 78.976562 -10.71875 70.71875 -6 C 62.46875 -1.289062 53.863281 1.0625 44.90625 1.0625 C 31.945312 1.0625 22.695312 -3.296875 17.15625 -12.015625 C 11.613281 -20.742188 8.84375 -30.882812 8.84375 -42.4375 L 8.84375 -123.78125 C 14.257812 -123.78125 18.554688 -122.242188 21.734375 -119.171875 C 24.921875 -116.109375 26.515625 -111.867188 26.515625 -106.453125 L 26.515625 -39.25 C 26.515625 -33.59375 27.335938 -28.113281 28.984375 -22.8125 C 30.640625 -17.507812 33.410156 -13.085938 37.296875 -9.546875 C 41.191406 -6.015625 46.441406 -4.25 53.046875 -4.25 C 61.054688 -4.25 68.421875 -6.722656 75.140625 -11.671875 C 81.867188 -16.617188 86.878906 -22.394531 90.171875 -29 Z M 90.171875 -123.78125 "/></g></g></g><g fill="#292b2a" fill-opacity="1"><g transform="translate(400.599966, 247.750332)"><g><path d="M 63.296875 -26.171875 C 50.328125 -26.171875 38.894531 -30.0625 29 -37.84375 C 25.457031 -36.425781 22.445312 -34.179688 19.96875 -31.109375 C 17.5 -28.046875 16.265625 -24.515625 16.265625 -20.515625 C 16.265625 -15.328125 18.03125 -11.375 21.5625 -8.65625 C 25.101562 -5.945312 29.234375 -4.59375 33.953125 -4.59375 C 41.960938 -4.59375 49.679688 -5.890625 57.109375 -8.484375 C 64.535156 -11.078125 72.019531 -13.726562 79.5625 -16.4375 C 87.113281 -19.15625 94.894531 -20.515625 102.90625 -20.515625 C 111.15625 -20.515625 117.816406 -17.976562 122.890625 -12.90625 C 127.960938 -7.832031 130.5 -1.171875 130.5 7.078125 C 130.5 16.972656 127.550781 25.160156 121.65625 31.640625 C 115.757812 38.128906 108.507812 42.960938 99.90625 46.140625 C 91.300781 49.328125 82.632812 50.921875 73.90625 50.921875 C 64.71875 50.921875 56.054688 49.269531 47.921875 45.96875 C 39.785156 42.664062 33.300781 37.65625 28.46875 30.9375 C 23.632812 24.21875 21.335938 15.789062 21.578125 5.65625 C 18.503906 3.0625 16.144531 -0.234375 14.5 -4.234375 C 12.851562 -8.242188 12.03125 -12.253906 12.03125 -16.265625 C 12.03125 -21.210938 13.320312 -25.804688 15.90625 -30.046875 C 18.5 -34.296875 22.035156 -37.601562 26.515625 -39.96875 C 15.203125 -49.863281 9.546875 -62.003906 9.546875 -76.390625 C 9.546875 -86.054688 12.140625 -94.601562 17.328125 -102.03125 C 22.515625 -109.457031 29.289062 -115.347656 37.65625 -119.703125 C 46.03125 -124.066406 54.695312 -126.25 63.65625 -126.25 C 74.03125 -126.25 83.578125 -123.773438 92.296875 -118.828125 C 94.179688 -121.179688 96.890625 -123.890625 100.421875 -126.953125 C 103.960938 -130.015625 107.738281 -132.722656 111.75 -135.078125 C 115.757812 -137.441406 119.175781 -138.625 122 -138.625 L 122 -121.296875 C 118.9375 -122.003906 115.753906 -122.359375 112.453125 -122.359375 C 109.390625 -122.359375 106.265625 -122.0625 103.078125 -121.46875 C 99.898438 -120.882812 97.015625 -119.648438 94.421875 -117.765625 C 101.734375 -113.285156 107.566406 -107.445312 111.921875 -100.25 C 116.285156 -93.0625 118.46875 -85.109375 118.46875 -76.390625 C 118.46875 -66.722656 115.816406 -58.054688 110.515625 -50.390625 C 105.210938 -42.734375 98.375 -36.78125 90 -32.53125 C 81.632812 -28.289062 72.734375 -26.171875 63.296875 -26.171875 Z M 29.703125 -79.921875 C 29.703125 -73.085938 31.054688 -65.660156 33.765625 -57.640625 C 36.484375 -49.628906 40.609375 -42.851562 46.140625 -37.3125 C 51.679688 -31.769531 58.460938 -29 66.484375 -29 C 73.554688 -29 79.390625 -31.351562 83.984375 -36.0625 C 88.585938 -40.78125 92.007812 -46.554688 94.25 -53.390625 C 96.488281 -60.234375 97.609375 -66.601562 97.609375 -72.5 C 97.609375 -79.570312 96.191406 -87.054688 93.359375 -94.953125 C 90.535156 -102.847656 86.351562 -109.566406 80.8125 -115.109375 C 75.269531 -120.648438 68.375 -123.421875 60.125 -123.421875 C 53.28125 -123.421875 47.5625 -121.003906 42.96875 -116.171875 C 38.375 -111.335938 35.015625 -105.5625 32.890625 -98.84375 C 30.765625 -92.125 29.703125 -85.816406 29.703125 -79.921875 Z M 24.75 7.78125 C 24.75 16.5 27.046875 23.863281 31.640625 29.875 C 36.242188 35.894531 42.257812 40.4375 49.6875 43.5 C 57.113281 46.5625 64.953125 48.09375 73.203125 48.09375 C 78.148438 48.09375 83.570312 47.441406 89.46875 46.140625 C 95.363281 44.847656 101.082031 42.847656 106.625 40.140625 C 112.164062 37.429688 116.703125 33.894531 120.234375 29.53125 C 123.773438 25.164062 125.546875 19.921875 125.546875 13.796875 C 125.546875 8.367188 123.65625 4.414062 119.875 1.9375 C 116.101562 -0.53125 111.742188 -1.765625 106.796875 -1.765625 C 99.492188 -1.765625 92.242188 -0.585938 85.046875 1.765625 C 77.859375 4.117188 70.785156 6.472656 63.828125 8.828125 C 56.878906 11.191406 49.628906 12.375 42.078125 12.375 C 39.015625 12.375 36.007812 12.019531 33.0625 11.3125 C 30.113281 10.601562 27.34375 9.425781 24.75 7.78125 Z M 24.75 7.78125 "/></g></g></g><g fill="#292b2a" fill-opacity="1"><g transform="translate(531.093113, 247.750332)"><g><path d="M 29 -81.34375 L 10.25 -81.34375 C 11.90625 -89.820312 15.5625 -97.300781 21.21875 -103.78125 C 26.875 -110.269531 33.707031 -115.398438 41.71875 -119.171875 C 49.738281 -122.941406 57.992188 -124.828125 66.484375 -124.828125 C 80.628906 -124.828125 90.472656 -120.40625 96.015625 -111.5625 C 101.554688 -102.726562 104.328125 -91.828125 104.328125 -78.859375 L 104.328125 -24.40625 C 104.328125 -22.039062 104.679688 -19.328125 105.390625 -16.265625 C 106.097656 -13.203125 107.273438 -10.550781 108.921875 -8.3125 C 110.566406 -6.070312 112.925781 -4.953125 116 -4.953125 C 120.707031 -4.953125 124.300781 -7.367188 126.78125 -12.203125 C 129.257812 -17.035156 130.847656 -21.335938 131.546875 -25.109375 L 132.609375 -24.75 C 131.671875 -18.15625 129.375 -12.265625 125.71875 -7.078125 C 122.0625 -1.890625 116.460938 0.703125 108.921875 0.703125 C 102.554688 0.703125 97.78125 -0.828125 94.59375 -3.890625 C 91.414062 -6.953125 89.296875 -10.898438 88.234375 -15.734375 C 87.171875 -20.566406 86.640625 -25.578125 86.640625 -30.765625 C 83.109375 -21.566406 77.628906 -13.960938 70.203125 -7.953125 C 62.773438 -1.941406 53.875 1.0625 43.5 1.0625 C 34.070312 1.0625 25.703125 -1.820312 18.390625 -7.59375 C 11.078125 -13.375 7.421875 -21.21875 7.421875 -31.125 C 7.421875 -39.132812 9.894531 -45.671875 14.84375 -50.734375 C 19.800781 -55.804688 25.992188 -60.109375 33.421875 -63.640625 C 40.847656 -67.179688 48.273438 -70.601562 55.703125 -73.90625 C 63.128906 -77.207031 69.316406 -81.097656 74.265625 -85.578125 C 79.210938 -90.054688 81.6875 -95.953125 81.6875 -103.265625 C 81.6875 -108.679688 80.09375 -113.273438 76.90625 -117.046875 C 73.726562 -120.828125 69.3125 -122.71875 63.65625 -122.71875 C 57.289062 -122.71875 51.453125 -121.003906 46.140625 -117.578125 C 40.835938 -114.160156 36.65625 -109.625 33.59375 -103.96875 C 30.53125 -98.3125 29 -92.300781 29 -85.9375 C 29 -85.226562 29 -84.457031 29 -83.625 C 29 -82.800781 29 -82.039062 29 -81.34375 Z M 86.640625 -44.203125 L 86.640625 -88.765625 C 86.640625 -91.585938 86.460938 -94.351562 86.109375 -97.0625 C 85.753906 -99.78125 84.988281 -102.4375 83.8125 -105.03125 C 84.519531 -97.71875 82.988281 -91.765625 79.21875 -87.171875 C 75.445312 -82.578125 70.671875 -78.566406 64.890625 -75.140625 C 59.117188 -71.722656 53.222656 -68.242188 47.203125 -64.703125 C 41.191406 -61.171875 36.125 -56.867188 32 -51.796875 C 27.875 -46.734375 25.8125 -40.078125 25.8125 -31.828125 C 25.8125 -24.515625 27.875 -18.265625 32 -13.078125 C 36.125 -7.890625 42.078125 -5.296875 49.859375 -5.296875 C 56.222656 -5.296875 62.234375 -7.238281 67.890625 -11.125 C 73.554688 -15.019531 78.097656 -19.972656 81.515625 -25.984375 C 84.929688 -32.003906 86.640625 -38.078125 86.640625 -44.203125 Z M 86.640625 -44.203125 "/></g></g></g><g fill="#292b2a" fill-opacity="1"><g transform="translate(652.391676, 247.750332)"><g><path d="M 26.875 -141.109375 C 23.570312 -141.109375 20.800781 -142.164062 18.5625 -144.28125 C 16.320312 -146.40625 15.203125 -149.117188 15.203125 -152.421875 C 15.203125 -155.953125 16.320312 -158.71875 18.5625 -160.71875 C 20.800781 -162.726562 23.570312 -163.734375 26.875 -163.734375 C 30.175781 -163.734375 32.882812 -162.671875 35 -160.546875 C 37.125 -158.429688 38.1875 -155.722656 38.1875 -152.421875 C 38.1875 -149.117188 37.125 -146.40625 35 -144.28125 C 32.882812 -142.164062 30.175781 -141.109375 26.875 -141.109375 Z M 18.75 -123.78125 C 23.925781 -123.78125 28.109375 -122.1875 31.296875 -119 C 34.484375 -115.8125 36.078125 -111.507812 36.078125 -106.09375 L 36.421875 -24.75 C 36.421875 -22.394531 36.710938 -19.6875 37.296875 -16.625 C 37.890625 -13.5625 39.007812 -10.847656 40.65625 -8.484375 C 42.3125 -6.128906 44.671875 -4.953125 47.734375 -4.953125 C 52.453125 -4.953125 56.109375 -7.367188 58.703125 -12.203125 C 61.296875 -17.035156 62.945312 -21.335938 63.65625 -25.109375 L 64.71875 -24.75 C 63.769531 -18.15625 61.46875 -12.265625 57.8125 -7.078125 C 54.164062 -1.890625 48.566406 0.703125 41.015625 0.703125 C 33.710938 0.703125 28.175781 -1.59375 24.40625 -6.1875 C 20.632812 -10.78125 18.75 -16.613281 18.75 -23.6875 Z M 18.75 -123.78125 "/></g></g></g><g fill="#292b2a" fill-opacity="1"><g transform="translate(705.791308, 247.750332)"><g><path d="M 122.359375 0.703125 C 115.046875 0.703125 109.5625 -1.828125 105.90625 -6.890625 C 102.257812 -11.960938 100.316406 -18.859375 100.078125 -27.578125 L 100.078125 -73.90625 C 100.078125 -81.21875 99.601562 -88.347656 98.65625 -95.296875 C 97.71875 -102.253906 95.476562 -108.03125 91.9375 -112.625 C 88.40625 -117.226562 82.75 -119.53125 74.96875 -119.53125 C 66.476562 -119.53125 58.753906 -116.523438 51.796875 -110.515625 C 44.847656 -104.503906 39.84375 -97.722656 36.78125 -90.171875 L 36.78125 -17.6875 C 36.78125 -13.207031 37.898438 -9.609375 40.140625 -6.890625 C 42.378906 -4.179688 45.382812 -1.882812 49.15625 0 L 6.359375 0 C 12.492188 -2.59375 16.148438 -5.832031 17.328125 -9.71875 C 18.503906 -13.613281 19.09375 -18.507812 19.09375 -24.40625 L 19.09375 -123.78125 C 24.988281 -123.78125 29.113281 -122.421875 31.46875 -119.703125 C 33.832031 -116.992188 35.304688 -113.515625 35.890625 -109.265625 C 36.484375 -105.023438 36.78125 -100.664062 36.78125 -96.1875 C 41.488281 -104.4375 48.023438 -111.332031 56.390625 -116.875 C 64.765625 -122.414062 73.671875 -125.1875 83.109375 -125.1875 C 91.359375 -125.1875 97.78125 -123.414062 102.375 -119.875 C 106.976562 -116.34375 110.457031 -111.6875 112.8125 -105.90625 C 115.164062 -100.132812 116.632812 -93.710938 117.21875 -86.640625 C 117.8125 -79.566406 118.109375 -72.613281 118.109375 -65.78125 L 117.765625 -31.828125 C 117.992188 -28.054688 118.285156 -24.046875 118.640625 -19.796875 C 118.992188 -15.554688 119.992188 -11.960938 121.640625 -9.015625 C 123.296875 -6.066406 125.894531 -4.59375 129.4375 -4.59375 C 134.144531 -4.59375 137.796875 -7.066406 140.390625 -12.015625 C 142.984375 -16.972656 144.519531 -21.335938 145 -25.109375 L 146.046875 -24.75 C 145.109375 -18.15625 142.8125 -12.265625 139.15625 -7.078125 C 135.5 -1.890625 129.898438 0.703125 122.359375 0.703125 Z M 122.359375 0.703125 "/></g></g></g><g fill="#292b2a" fill-opacity="1"><g transform="translate(840.528174, 247.750332)"><g><path d="M 13.4375 -86.640625 C 13.4375 -102.910156 17.382812 -117.644531 25.28125 -130.84375 C 33.175781 -144.050781 43.785156 -154.539062 57.109375 -162.3125 C 70.429688 -170.09375 85.109375 -173.984375 101.140625 -173.984375 C 117.171875 -173.984375 131.785156 -170.035156 144.984375 -162.140625 C 158.191406 -154.242188 168.6875 -143.691406 176.46875 -130.484375 C 184.25 -117.285156 188.140625 -102.671875 188.140625 -86.640625 C 188.140625 -71.316406 184.484375 -57.226562 177.171875 -44.375 C 169.867188 -31.53125 160.023438 -21.039062 147.640625 -12.90625 C 135.265625 -4.769531 121.414062 -0.234375 106.09375 0.703125 L 142.875 16.96875 C 137.6875 18.625 132.789062 21.867188 128.1875 26.703125 C 123.59375 31.535156 120.351562 36.304688 118.46875 41.015625 L 101.140625 1.421875 C 85.347656 -0.703125 70.789062 -5.476562 57.46875 -12.90625 C 44.144531 -20.332031 33.472656 -30.234375 25.453125 -42.609375 C 17.441406 -54.992188 13.4375 -69.671875 13.4375 -86.640625 Z M 38.1875 -91.234375 C 38.1875 -81.566406 39.660156 -71.546875 42.609375 -61.171875 C 45.554688 -50.804688 49.914062 -41.082031 55.6875 -32 C 61.46875 -22.925781 68.601562 -15.617188 77.09375 -10.078125 C 85.582031 -4.535156 95.367188 -1.765625 106.453125 -1.765625 C 116.109375 -1.765625 124.53125 -4.359375 131.71875 -9.546875 C 138.914062 -14.734375 144.867188 -21.394531 149.578125 -29.53125 C 154.296875 -37.664062 157.773438 -46.390625 160.015625 -55.703125 C 162.253906 -65.015625 163.375 -73.796875 163.375 -82.046875 C 163.375 -91.710938 161.898438 -101.734375 158.953125 -112.109375 C 156.015625 -122.484375 151.65625 -132.148438 145.875 -141.109375 C 140.101562 -150.066406 132.910156 -157.3125 124.296875 -162.84375 C 115.691406 -168.382812 105.851562 -171.15625 94.78125 -171.15625 C 85.34375 -171.15625 77.03125 -168.5625 69.84375 -163.375 C 62.65625 -158.195312 56.757812 -151.539062 52.15625 -143.40625 C 47.5625 -135.269531 44.082031 -126.601562 41.71875 -117.40625 C 39.363281 -108.207031 38.1875 -99.484375 38.1875 -91.234375 Z M 38.1875 -91.234375 "/></g></g></g><g fill="#292b2a" fill-opacity="1"><g transform="translate(1029.371912, 247.750332)"><g><path d="M 26.875 -141.109375 C 23.570312 -141.109375 20.800781 -142.164062 18.5625 -144.28125 C 16.320312 -146.40625 15.203125 -149.117188 15.203125 -152.421875 C 15.203125 -155.953125 16.320312 -158.71875 18.5625 -160.71875 C 20.800781 -162.726562 23.570312 -163.734375 26.875 -163.734375 C 30.175781 -163.734375 32.882812 -162.671875 35 -160.546875 C 37.125 -158.429688 38.1875 -155.722656 38.1875 -152.421875 C 38.1875 -149.117188 37.125 -146.40625 35 -144.28125 C 32.882812 -142.164062 30.175781 -141.109375 26.875 -141.109375 Z M 18.75 -123.78125 C 23.925781 -123.78125 28.109375 -122.1875 31.296875 -119 C 34.484375 -115.8125 36.078125 -111.507812 36.078125 -106.09375 L 36.421875 -24.75 C 36.421875 -22.394531 36.710938 -19.6875 37.296875 -16.625 C 37.890625 -13.5625 39.007812 -10.847656 40.65625 -8.484375 C 42.3125 -6.128906 44.671875 -4.953125 47.734375 -4.953125 C 52.453125 -4.953125 56.109375 -7.367188 58.703125 -12.203125 C 61.296875 -17.035156 62.945312 -21.335938 63.65625 -25.109375 L 64.71875 -24.75 C 63.769531 -18.15625 61.46875 -12.265625 57.8125 -7.078125 C 54.164062 -1.890625 48.566406 0.703125 41.015625 0.703125 C 33.710938 0.703125 28.175781 -1.59375 24.40625 -6.1875 C 20.632812 -10.78125 18.75 -16.613281 18.75 -23.6875 Z M 18.75 -123.78125 "/></g></g></g><g fill="#292b2a" fill-opacity="1"><g transform="translate(1082.771589, 247.750332)"><g><path d="M 63.65625 -25.109375 L 65.0625 -24.75 C 64.125 -18.15625 61.769531 -12.265625 58 -7.078125 C 54.226562 -1.890625 48.566406 0.703125 41.015625 0.703125 C 33.710938 0.703125 28.175781 -1.59375 24.40625 -6.1875 C 20.632812 -10.78125 18.75 -16.734375 18.75 -24.046875 L 18.75 -114.9375 C 18.75 -128.132812 21.515625 -140.921875 27.046875 -153.296875 C 32.585938 -165.679688 40.546875 -175.878906 50.921875 -183.890625 C 61.296875 -191.910156 73.554688 -195.921875 87.703125 -195.921875 L 87.703125 -177.171875 C 83.691406 -178.117188 79.5625 -179.003906 75.3125 -179.828125 C 71.070312 -180.648438 66.832031 -181.0625 62.59375 -181.0625 C 55.757812 -181.0625 50.515625 -179.351562 46.859375 -175.9375 C 43.203125 -172.519531 40.664062 -168.097656 39.25 -162.671875 C 37.832031 -157.253906 37.003906 -151.535156 36.765625 -145.515625 C 36.535156 -139.503906 36.421875 -134.023438 36.421875 -129.078125 L 36.421875 -24.75 C 36.421875 -21.21875 37.1875 -17.035156 38.71875 -12.203125 C 40.25 -7.367188 43.253906 -4.953125 47.734375 -4.953125 C 52.453125 -4.953125 56.109375 -7.367188 58.703125 -12.203125 C 61.296875 -17.035156 62.945312 -21.335938 63.65625 -25.109375 Z M 63.65625 -25.109375 "/></g></g></g><g fill="#292b2a" fill-opacity="1"><g transform="translate(1135.463935, 247.750332)"><g><path d="M 29 -81.34375 L 10.25 -81.34375 C 11.90625 -89.820312 15.5625 -97.300781 21.21875 -103.78125 C 26.875 -110.269531 33.707031 -115.398438 41.71875 -119.171875 C 49.738281 -122.941406 57.992188 -124.828125 66.484375 -124.828125 C 80.628906 -124.828125 90.472656 -120.40625 96.015625 -111.5625 C 101.554688 -102.726562 104.328125 -91.828125 104.328125 -78.859375 L 104.328125 -24.40625 C 104.328125 -22.039062 104.679688 -19.328125 105.390625 -16.265625 C 106.097656 -13.203125 107.273438 -10.550781 108.921875 -8.3125 C 110.566406 -6.070312 112.925781 -4.953125 116 -4.953125 C 120.707031 -4.953125 124.300781 -7.367188 126.78125 -12.203125 C 129.257812 -17.035156 130.847656 -21.335938 131.546875 -25.109375 L 132.609375 -24.75 C 131.671875 -18.15625 129.375 -12.265625 125.71875 -7.078125 C 122.0625 -1.890625 116.460938 0.703125 108.921875 0.703125 C 102.554688 0.703125 97.78125 -0.828125 94.59375 -3.890625 C 91.414062 -6.953125 89.296875 -10.898438 88.234375 -15.734375 C 87.171875 -20.566406 86.640625 -25.578125 86.640625 -30.765625 C 83.109375 -21.566406 77.628906 -13.960938 70.203125 -7.953125 C 62.773438 -1.941406 53.875 1.0625 43.5 1.0625 C 34.070312 1.0625 25.703125 -1.820312 18.390625 -7.59375 C 11.078125 -13.375 7.421875 -21.21875 7.421875 -31.125 C 7.421875 -39.132812 9.894531 -45.671875 14.84375 -50.734375 C 19.800781 -55.804688 25.992188 -60.109375 33.421875 -63.640625 C 40.847656 -67.179688 48.273438 -70.601562 55.703125 -73.90625 C 63.128906 -77.207031 69.316406 -81.097656 74.265625 -85.578125 C 79.210938 -90.054688 81.6875 -95.953125 81.6875 -103.265625 C 81.6875 -108.679688 80.09375 -113.273438 76.90625 -117.046875 C 73.726562 -120.828125 69.3125 -122.71875 63.65625 -122.71875 C 57.289062 -122.71875 51.453125 -121.003906 46.140625 -117.578125 C 40.835938 -114.160156 36.65625 -109.625 33.59375 -103.96875 C 30.53125 -98.3125 29 -92.300781 29 -85.9375 C 29 -85.226562 29 -84.457031 29 -83.625 C 29 -82.800781 29 -82.039062 29 -81.34375 Z M 86.640625 -44.203125 L 86.640625 -88.765625 C 86.640625 -91.585938 86.460938 -94.351562 86.109375 -97.0625 C 85.753906 -99.78125 84.988281 -102.4375 83.8125 -105.03125 C 84.519531 -97.71875 82.988281 -91.765625 79.21875 -87.171875 C 75.445312 -82.578125 70.671875 -78.566406 64.890625 -75.140625 C 59.117188 -71.722656 53.222656 -68.242188 47.203125 -64.703125 C 41.191406 -61.171875 36.125 -56.867188 32 -51.796875 C 27.875 -46.734375 25.8125 -40.078125 25.8125 -31.828125 C 25.8125 -24.515625 27.875 -18.265625 32 -13.078125 C 36.125 -7.890625 42.078125 -5.296875 49.859375 -5.296875 C 56.222656 -5.296875 62.234375 -7.238281 67.890625 -11.125 C 73.554688 -15.019531 78.097656 -19.972656 81.515625 -25.984375 C 84.929688 -32.003906 86.640625 -38.078125 86.640625 -44.203125 Z M 86.640625 -44.203125 "/></g></g></g></g></g></g><g clip-path="url(#105282dd07)"><g transform="matrix(1, 0, 0, 1, 219, 317)"><g clip-path="url(#92f16d7d75)"><g fill="#292b2a" fill-opacity="1"><g transform="translate(0.92559, 57.424931)"><g><path d="M 14.390625 -36.15625 L 0.234375 -36.15625 L 0.234375 -41.28125 L 34.390625 -41.28125 L 34.390625 -36.15625 L 20.234375 -36.15625 L 20.234375 0 L 14.390625 0 Z M 14.390625 -36.15625 "/></g></g></g><g fill="#292b2a" fill-opacity="1"><g transform="translate(47.936138, 57.424931)"><g><path d="M 41.703125 -41.28125 L 41.703125 0 L 35.796875 0 L 35.796875 -18.40625 L 12.09375 -18.40625 L 12.09375 0 L 6.1875 0 L 6.1875 -41.28125 L 12.09375 -41.28125 L 12.09375 -23.53125 L 35.796875 -23.53125 L 35.796875 -41.28125 Z M 41.703125 -41.28125 "/></g></g></g><g fill="#292b2a" fill-opacity="1"><g transform="translate(108.217377, 57.424931)"><g><path d="M 36.15625 -5.125 L 36.15625 0 L 6.1875 0 L 6.1875 -41.28125 L 35.328125 -41.28125 L 35.328125 -36.15625 L 12.09375 -36.15625 L 12.09375 -23.46875 L 32.796875 -23.46875 L 32.796875 -18.46875 L 12.09375 -18.46875 L 12.09375 -5.125 Z M 36.15625 -5.125 "/></g></g></g><g fill="#292b2a" fill-opacity="1"><g transform="translate(160.123332, 57.424931)"><g/></g></g><g fill="#292b2a" fill-opacity="1"><g transform="translate(188.377972, 57.424931)"><g><path d="M 14.390625 -36.15625 L 0.234375 -36.15625 L 0.234375 -41.28125 L 34.390625 -41.28125 L 34.390625 -36.15625 L 20.234375 -36.15625 L 20.234375 0 L 14.390625 0 Z M 14.390625 -36.15625 "/></g></g></g><g fill="#292b2a" fill-opacity="1"><g transform="translate(235.388532, 57.424931)"><g><path d="M 36.15625 -5.125 L 36.15625 0 L 6.1875 0 L 6.1875 -41.28125 L 35.328125 -41.28125 L 35.328125 -36.15625 L 12.09375 -36.15625 L 12.09375 -23.46875 L 32.796875 -23.46875 L 32.796875 -18.46875 L 12.09375 -18.46875 L 12.09375 -5.125 Z M 36.15625 -5.125 "/></g></g></g><g fill="#292b2a" fill-opacity="1"><g transform="translate(287.294475, 57.424931)"><g><path d="M 33.796875 0 L 24.890625 -12.6875 C 23.785156 -12.601562 22.921875 -12.5625 22.296875 -12.5625 L 12.09375 -12.5625 L 12.09375 0 L 6.1875 0 L 6.1875 -41.28125 L 22.296875 -41.28125 C 27.640625 -41.28125 31.84375 -40.003906 34.90625 -37.453125 C 37.976562 -34.898438 39.515625 -31.378906 39.515625 -26.890625 C 39.515625 -23.710938 38.726562 -21 37.15625 -18.75 C 35.582031 -16.507812 33.34375 -14.878906 30.4375 -13.859375 L 40.234375 0 Z M 22.125 -17.578125 C 25.851562 -17.578125 28.703125 -18.378906 30.671875 -19.984375 C 32.640625 -21.597656 33.625 -23.898438 33.625 -26.890625 C 33.625 -29.878906 32.640625 -32.171875 30.671875 -33.765625 C 28.703125 -35.359375 25.851562 -36.15625 22.125 -36.15625 L 12.09375 -36.15625 L 12.09375 -17.578125 Z M 22.125 -17.578125 "/></g></g></g><g fill="#292b2a" fill-opacity="1"><g transform="translate(342.562355, 57.424931)"><g><path d="M 33.796875 0 L 24.890625 -12.6875 C 23.785156 -12.601562 22.921875 -12.5625 22.296875 -12.5625 L 12.09375 -12.5625 L 12.09375 0 L 6.1875 0 L 6.1875 -41.28125 L 22.296875 -41.28125 C 27.640625 -41.28125 31.84375 -40.003906 34.90625 -37.453125 C 37.976562 -34.898438 39.515625 -31.378906 39.515625 -26.890625 C 39.515625 -23.710938 38.726562 -21 37.15625 -18.75 C 35.582031 -16.507812 33.34375 -14.878906 30.4375 -13.859375 L 40.234375 0 Z M 22.125 -17.578125 C 25.851562 -17.578125 28.703125 -18.378906 30.671875 -19.984375 C 32.640625 -21.597656 33.625 -23.898438 33.625 -26.890625 C 33.625 -29.878906 32.640625 -32.171875 30.671875 -33.765625 C 28.703125 -35.359375 25.851562 -36.15625 22.125 -36.15625 L 12.09375 -36.15625 L 12.09375 -17.578125 Z M 22.125 -17.578125 "/></g></g></g><g fill="#292b2a" fill-opacity="1"><g transform="translate(397.83021, 57.424931)"><g><path d="M 32.5 -10.328125 L 10.5625 -10.328125 L 6.015625 0 L -0.0625 0 L 18.640625 -41.28125 L 24.484375 -41.28125 L 43.234375 0 L 37.046875 0 Z M 30.4375 -15.046875 L 21.53125 -35.265625 L 12.625 -15.046875 Z M 30.4375 -15.046875 "/></g></g></g><g fill="#292b2a" fill-opacity="1"><g transform="translate(453.392988, 57.424931)"><g><path d="M 24.65625 0.46875 C 20.53125 0.46875 16.804688 -0.441406 13.484375 -2.265625 C 10.160156 -4.097656 7.550781 -6.613281 5.65625 -9.8125 C 3.769531 -13.019531 2.828125 -16.628906 2.828125 -20.640625 C 2.828125 -24.648438 3.769531 -28.257812 5.65625 -31.46875 C 7.550781 -34.675781 10.164062 -37.191406 13.5 -39.015625 C 16.84375 -40.847656 20.582031 -41.765625 24.71875 -41.765625 C 27.9375 -41.765625 30.882812 -41.222656 33.5625 -40.140625 C 36.238281 -39.054688 38.519531 -37.453125 40.40625 -35.328125 L 36.5625 -31.609375 C 33.457031 -34.878906 29.585938 -36.515625 24.953125 -36.515625 C 21.878906 -36.515625 19.101562 -35.820312 16.625 -34.4375 C 14.15625 -33.0625 12.222656 -31.164062 10.828125 -28.75 C 9.429688 -26.332031 8.734375 -23.628906 8.734375 -20.640625 C 8.734375 -17.648438 9.429688 -14.945312 10.828125 -12.53125 C 12.222656 -10.113281 14.15625 -8.21875 16.625 -6.84375 C 19.101562 -5.46875 21.878906 -4.78125 24.953125 -4.78125 C 29.546875 -4.78125 33.414062 -6.429688 36.5625 -9.734375 L 40.40625 -6.015625 C 38.519531 -3.890625 36.226562 -2.273438 33.53125 -1.171875 C 30.832031 -0.078125 27.875 0.46875 24.65625 0.46875 Z M 24.65625 0.46875 "/></g></g></g><g fill="#292b2a" fill-opacity="1"><g transform="translate(508.42489, 57.424931)"><g><path d="M 36.15625 -5.125 L 36.15625 0 L 6.1875 0 L 6.1875 -41.28125 L 35.328125 -41.28125 L 35.328125 -36.15625 L 12.09375 -36.15625 L 12.09375 -23.46875 L 32.796875 -23.46875 L 32.796875 -18.46875 L 12.09375 -18.46875 L 12.09375 -5.125 Z M 36.15625 -5.125 "/></g></g></g><g fill="#292b2a" fill-opacity="1"><g transform="translate(560.330882, 57.424931)"><g/></g></g><g fill="#292b2a" fill-opacity="1"><g transform="translate(588.585523, 57.424931)"><g><path d="M 18.21875 0.46875 C 15.113281 0.46875 12.113281 -0.0078125 9.21875 -0.96875 C 6.332031 -1.9375 4.066406 -3.1875 2.421875 -4.71875 L 4.59375 -9.3125 C 6.164062 -7.90625 8.179688 -6.757812 10.640625 -5.875 C 13.097656 -4.988281 15.625 -4.546875 18.21875 -4.546875 C 21.644531 -4.546875 24.203125 -5.125 25.890625 -6.28125 C 27.585938 -7.4375 28.4375 -8.976562 28.4375 -10.90625 C 28.4375 -12.320312 27.972656 -13.472656 27.046875 -14.359375 C 26.117188 -15.242188 24.976562 -15.921875 23.625 -16.390625 C 22.269531 -16.867188 20.351562 -17.398438 17.875 -17.984375 C 14.769531 -18.734375 12.257812 -19.484375 10.34375 -20.234375 C 8.4375 -20.984375 6.804688 -22.132812 5.453125 -23.6875 C 4.097656 -25.238281 3.421875 -27.332031 3.421875 -29.96875 C 3.421875 -32.164062 4 -34.148438 5.15625 -35.921875 C 6.320312 -37.691406 8.082031 -39.109375 10.4375 -40.171875 C 12.800781 -41.234375 15.734375 -41.765625 19.234375 -41.765625 C 21.671875 -41.765625 24.066406 -41.445312 26.421875 -40.8125 C 28.785156 -40.1875 30.8125 -39.285156 32.5 -38.109375 L 30.546875 -33.390625 C 28.816406 -34.484375 26.96875 -35.316406 25 -35.890625 C 23.039062 -36.460938 21.117188 -36.75 19.234375 -36.75 C 15.890625 -36.75 13.378906 -36.140625 11.703125 -34.921875 C 10.035156 -33.703125 9.203125 -32.128906 9.203125 -30.203125 C 9.203125 -28.785156 9.671875 -27.632812 10.609375 -26.75 C 11.554688 -25.863281 12.726562 -25.175781 14.125 -24.6875 C 15.519531 -24.195312 17.414062 -23.675781 19.8125 -23.125 C 22.925781 -22.375 25.425781 -21.625 27.3125 -20.875 C 29.195312 -20.132812 30.816406 -18.992188 32.171875 -17.453125 C 33.523438 -15.921875 34.203125 -13.859375 34.203125 -11.265625 C 34.203125 -9.097656 33.613281 -7.117188 32.4375 -5.328125 C 31.257812 -3.546875 29.46875 -2.132812 27.0625 -1.09375 C 24.664062 -0.0507812 21.71875 0.46875 18.21875 0.46875 Z M 18.21875 0.46875 "/></g></g></g><g fill="#292b2a" fill-opacity="1"><g transform="translate(637.601385, 57.424931)"><g><path d="M 14.390625 -36.15625 L 0.234375 -36.15625 L 0.234375 -41.28125 L 34.390625 -41.28125 L 34.390625 -36.15625 L 20.234375 -36.15625 L 20.234375 0 L 14.390625 0 Z M 14.390625 -36.15625 "/></g></g></g><g fill="#292b2a" fill-opacity="1"><g transform="translate(684.611982, 57.424931)"><g><path d="M 23.296875 0.46875 C 17.796875 0.46875 13.507812 -1.101562 10.4375 -4.25 C 7.375 -7.394531 5.84375 -11.914062 5.84375 -17.8125 L 5.84375 -41.28125 L 11.734375 -41.28125 L 11.734375 -18.046875 C 11.734375 -9.203125 15.609375 -4.78125 23.359375 -4.78125 C 27.128906 -4.78125 30.015625 -5.867188 32.015625 -8.046875 C 34.023438 -10.234375 35.03125 -13.566406 35.03125 -18.046875 L 35.03125 -41.28125 L 40.765625 -41.28125 L 40.765625 -17.8125 C 40.765625 -11.875 39.226562 -7.34375 36.15625 -4.21875 C 33.09375 -1.09375 28.804688 0.46875 23.296875 0.46875 Z M 23.296875 0.46875 "/></g></g></g><g fill="#292b2a" fill-opacity="1"><g transform="translate(743.654611, 57.424931)"><g><path d="M 6.1875 -41.28125 L 23.59375 -41.28125 C 27.957031 -41.28125 31.828125 -40.414062 35.203125 -38.6875 C 38.585938 -36.957031 41.210938 -34.53125 43.078125 -31.40625 C 44.953125 -28.28125 45.890625 -24.691406 45.890625 -20.640625 C 45.890625 -16.585938 44.953125 -13 43.078125 -9.875 C 41.210938 -6.75 38.585938 -4.320312 35.203125 -2.59375 C 31.828125 -0.863281 27.957031 0 23.59375 0 L 6.1875 0 Z M 23.234375 -5.125 C 26.578125 -5.125 29.515625 -5.773438 32.046875 -7.078125 C 34.585938 -8.378906 36.546875 -10.195312 37.921875 -12.53125 C 39.296875 -14.875 39.984375 -17.578125 39.984375 -20.640625 C 39.984375 -23.710938 39.296875 -26.414062 37.921875 -28.75 C 36.546875 -31.09375 34.585938 -32.910156 32.046875 -34.203125 C 29.515625 -35.503906 26.578125 -36.15625 23.234375 -36.15625 L 12.09375 -36.15625 L 12.09375 -5.125 Z M 23.234375 -5.125 "/></g></g></g><g fill="#292b2a" fill-opacity="1"><g transform="translate(804.761549, 57.424931)"><g><path d="M 6.1875 -41.28125 L 12.09375 -41.28125 L 12.09375 0 L 6.1875 0 Z M 6.1875 -41.28125 "/></g></g></g><g fill="#292b2a" fill-opacity="1"><g transform="translate(835.434465, 57.424931)"><g><path d="M 24.828125 0.46875 C 20.660156 0.46875 16.90625 -0.441406 13.5625 -2.265625 C 10.21875 -4.097656 7.59375 -6.625 5.6875 -9.84375 C 3.78125 -13.070312 2.828125 -16.671875 2.828125 -20.640625 C 2.828125 -24.617188 3.78125 -28.21875 5.6875 -31.4375 C 7.59375 -34.664062 10.21875 -37.191406 13.5625 -39.015625 C 16.90625 -40.847656 20.660156 -41.765625 24.828125 -41.765625 C 28.960938 -41.765625 32.695312 -40.847656 36.03125 -39.015625 C 39.375 -37.191406 41.988281 -34.675781 43.875 -31.46875 C 45.769531 -28.257812 46.71875 -24.648438 46.71875 -20.640625 C 46.71875 -16.628906 45.769531 -13.019531 43.875 -9.8125 C 41.988281 -6.613281 39.375 -4.097656 36.03125 -2.265625 C 32.695312 -0.441406 28.960938 0.46875 24.828125 0.46875 Z M 24.828125 -4.78125 C 27.859375 -4.78125 30.582031 -5.46875 33 -6.84375 C 35.414062 -8.21875 37.320312 -10.113281 38.71875 -12.53125 C 40.113281 -14.945312 40.8125 -17.648438 40.8125 -20.640625 C 40.8125 -23.628906 40.113281 -26.332031 38.71875 -28.75 C 37.320312 -31.164062 35.414062 -33.0625 33 -34.4375 C 30.582031 -35.820312 27.859375 -36.515625 24.828125 -36.515625 C 21.804688 -36.515625 19.066406 -35.820312 16.609375 -34.4375 C 14.148438 -33.0625 12.222656 -31.164062 10.828125 -28.75 C 9.429688 -26.332031 8.734375 -23.628906 8.734375 -20.640625 C 8.734375 -17.648438 9.429688 -14.945312 10.828125 -12.53125 C 12.222656 -10.113281 14.148438 -8.21875 16.609375 -6.84375 C 19.066406 -5.46875 21.804688 -4.78125 24.828125 -4.78125 Z M 24.828125 -4.78125 "/></g></g></g></g></g></g><g clip-path="url(#48ab8d98ba)"><g clip-path="url(#f4f5d86ff9)"><g clip-path="url(#d34f3f7c86)"><path fill="#ad1867" d="M 954.351562 172.367188 C 954.515625 172.671875 954.195312 174.824219 954.085938 175.300781 C 954.007812 175.628906 953.730469 175.9375 953.640625 176.3125 C 951.730469 184.375 948.574219 191.820312 946.046875 199.679688 L 955.207031 195.46875 L 959.296875 188.253906 L 958.453125 194.378906 C 960.550781 194.277344 962.695312 193.210938 964.816406 193.339844 C 966.117188 193.417969 965.539062 194.285156 964.707031 194.679688 C 963.347656 195.324219 960.328125 195.816406 958.65625 196.375 C 954.804688 197.667969 945.628906 201.28125 944.214844 205.230469 C 943.371094 207.597656 942.824219 210.457031 942.320312 212.898438 C 942.0625 214.152344 941.648438 215.382812 941.386719 216.636719 C 941.53125 216.898438 944.183594 215.730469 944.660156 215.597656 C 947.507812 214.824219 950.230469 214.714844 953.152344 215.246094 C 959.703125 216.433594 965.679688 218.902344 971.132812 222.65625 C 970.953125 222.167969 970.289062 221.660156 969.886719 221.324219 C 965.003906 217.210938 959.011719 214.847656 952.785156 213.578125 C 959.28125 204.90625 970.488281 207.808594 976.214844 215.878906 C 979.101562 219.953125 982.820312 230.578125 982.195312 235.496094 C 982.171875 235.667969 982.1875 236.019531 981.980469 235.988281 C 980.871094 235.164062 979.445312 234.414062 978.15625 233.9375 C 968.855469 230.519531 956.058594 234.128906 952.195312 221.28125 C 951.707031 219.667969 951.675781 217.953125 951.261719 216.390625 C 948.5625 216.105469 944.941406 216.828125 942.664062 218.308594 C 940.660156 219.609375 940.886719 220.449219 940.605469 222.636719 C 939.542969 230.898438 940.5 240.386719 942.753906 248.371094 L 946.949219 259.902344 C 941.980469 252.789062 939.304688 244.515625 938.050781 235.972656 L 929.898438 230.085938 C 930.054688 229.726562 931.070312 230.125 931.347656 230.214844 C 932.164062 230.472656 937.433594 232.4375 937.738281 232.257812 C 937.988281 230.1875 937.859375 228.105469 937.996094 226.027344 C 938.097656 224.480469 938.785156 220.691406 938.574219 219.511719 C 938.222656 217.539062 934.378906 214.183594 932.394531 213.757812 C 930.539062 217.125 927.6875 219.839844 923.980469 221.019531 C 913.84375 224.238281 906.65625 215.140625 896.621094 216.398438 C 901.933594 206.949219 912.859375 196.144531 924.722656 200.285156 C 928.707031 201.671875 932.582031 206.359375 932.6875 210.628906 C 927.28125 208.53125 921.316406 208.179688 915.613281 208.941406 L 912.0625 209.816406 C 915.425781 209.679688 918.84375 209.273438 922.207031 209.648438 C 926.117188 210.082031 931.921875 211.5 935.320312 213.492188 C 936.789062 214.351562 937.8125 215.535156 939.144531 216.535156 C 939.75 213.628906 940.273438 210.707031 941.070312 207.835938 C 942.183594 203.808594 943.707031 202.589844 942.179688 198.292969 C 940.5 193.558594 936.855469 190.039062 933.605469 186.40625 L 933.707031 185.53125 C 934.410156 185.109375 937.960938 188.96875 938.882812 189.300781 C 939.183594 189.183594 940.0625 186.035156 940.28125 185.453125 C 940.398438 185.144531 940.488281 184.808594 940.898438 184.820312 C 940.929688 186.640625 940.339844 190.023438 940.820312 191.671875 C 941.058594 192.488281 943.324219 196.34375 943.925781 197.421875 C 944.070312 197.679688 943.992188 198 944.390625 197.691406 L 947.96875 188.105469 C 947.332031 185.097656 945.746094 182.332031 944.726562 179.433594 C 945.128906 179.476562 945.28125 179.859375 945.527344 180.128906 C 946.527344 181.238281 947.667969 183.132812 948.671875 184.039062 C 948.894531 184.242188 949.007812 184.429688 949.371094 184.433594 C 950.015625 182.128906 950.960938 179.921875 951.730469 177.660156 C 952.242188 176.164062 952.59375 174.011719 953.21875 172.605469 C 953.449219 172.09375 954.042969 171.796875 954.351562 172.367188 Z M 954.351562 172.367188 " fill-opacity="1" fill-rule="nonzero"/></g></g></g><g clip-path="url(#8e85fb395c)"><g clip-path="url(#19c09d0530)"><g clip-path="url(#c40732f995)"><path fill="#ad1867" d="M 958 152.386719 L 955.355469 162.144531 L 950.660156 158.265625 L 954.941406 163.804688 C 955.113281 164.492188 954.113281 168.480469 953.808594 169.359375 C 953.265625 170.910156 950.246094 171.90625 948.726562 171.765625 C 945.949219 171.503906 944.152344 169.261719 943.09375 166.90625 C 939.335938 158.5625 944.769531 153.109375 947.792969 145.828125 C 949.398438 141.960938 950.304688 138.289062 949.871094 134.074219 C 950.53125 133.792969 955.355469 138.890625 955.1875 140.039062 C 955.011719 141.265625 949.570312 146.042969 949.152344 147.925781 L 955.480469 141.726562 L 958.09375 138.382812 C 958.269531 138.375 958.414062 138.445312 958.5625 138.535156 C 959.09375 138.847656 961.902344 142.828125 962.441406 143.636719 C 964.722656 147.0625 966.628906 150.765625 967.886719 154.6875 L 968.78125 159.136719 C 969.191406 155.007812 967.875 150.753906 965.992188 147.121094 C 965.601562 146.367188 963.277344 142.960938 963.386719 142.515625 C 966.503906 139.636719 970.648438 138.117188 974.816406 137.542969 C 973.667969 140.222656 972.445312 142.585938 971.964844 145.519531 C 970.542969 154.1875 975.886719 161.753906 968.253906 168.945312 C 966.929688 170.195312 966.664062 170.359375 965.453125 171.824219 C 962.164062 175.800781 957.558594 174.859375 955.21875 170.484375 L 958.003906 152.390625 Z M 958 152.386719 " fill-opacity="1" fill-rule="nonzero"/></g></g></g><g clip-path="url(#87609ca434)"><g clip-path="url(#4124b9b24a)"><g clip-path="url(#cc473a12c6)"><path fill="#ad1867" d="M 999.625 182.636719 L 989.261719 196.289062 L 985.378906 199.929688 C 989.898438 197.777344 993.03125 193.628906 995.875 189.644531 C 999.355469 191.121094 1002.960938 194.066406 1004.925781 197.3125 C 1005.085938 197.578125 1005.324219 197.699219 1004.90625 197.871094 C 1002.007812 197.640625 998.808594 197.945312 996.011719 198.761719 C 989.566406 200.636719 983.441406 206.921875 976.273438 205.140625 C 975.464844 204.9375 974.4375 204.214844 973.609375 204.007812 C 972.785156 203.804688 971.582031 203.960938 970.757812 203.746094 C 965.839844 202.484375 964.351562 197.582031 967.855469 193.878906 L 984.394531 188.367188 L 975.875 189.871094 L 978.367188 183.925781 L 973.78125 190.46875 C 973.539062 190.664062 968.261719 192.175781 967.753906 192.210938 C 965.746094 192.359375 964.109375 188.867188 963.992188 187.144531 C 963.472656 179.730469 971.6875 175.855469 978.082031 176.230469 C 985.519531 176.667969 992.828125 179.8125 999.628906 182.636719 Z M 999.625 182.636719 " fill-opacity="1" fill-rule="nonzero"/></g></g></g><g clip-path="url(#6252c2670e)"><g clip-path="url(#5ab2d2f5d7)"><g clip-path="url(#6297fc9c81)"><path fill="#ad1867" d="M 927.070312 171.203125 C 926.6875 171.058594 926.785156 171.609375 926.75 171.847656 C 926.492188 173.804688 926.601562 175.847656 926.339844 177.808594 C 924.007812 176.054688 921.796875 174.121094 919.667969 172.128906 C 919.503906 171.976562 919.246094 171.523438 919.003906 171.800781 C 920.855469 173.90625 922.78125 175.953125 924.738281 177.960938 C 925.863281 179.117188 931.457031 184.261719 931.730469 185.175781 C 932.179688 186.660156 931.570312 189.25 930.613281 190.472656 C 928.691406 192.925781 925.804688 192.359375 923.210938 191.761719 C 918.164062 190.59375 914.988281 189.945312 911.480469 185.765625 C 909.925781 183.90625 908.875 181.632812 907.417969 179.6875 C 904.726562 176.09375 901.058594 172.621094 896.75 171.148438 C 896.542969 170.863281 898.488281 169.976562 898.777344 169.847656 C 901.777344 168.480469 905.300781 167.773438 908.601562 167.996094 C 909.371094 172.652344 910.09375 177.621094 912.96875 181.511719 L 911.398438 176.746094 C 910.023438 171.285156 909.777344 165.625 908.773438 160.097656 C 916.714844 161.019531 926.074219 161.417969 933.070312 165.683594 C 938.007812 168.695312 941.585938 176.460938 937.539062 181.492188 C 936.464844 182.828125 933.90625 184.453125 932.257812 183.40625 C 931.820312 183.128906 928.21875 179.628906 928.019531 179.25 C 927.15625 177.609375 927.476562 173.171875 927.070312 171.203125 Z M 927.070312 171.203125 " fill-opacity="1" fill-rule="nonzero"/></g></g></g><g clip-path="url(#6fdb94ab1a)"><g clip-path="url(#316815cdff)"><g clip-path="url(#d251740a38)"><path fill="#ad1867" d="M 926.042969 161.664062 C 922.003906 160.484375 917.824219 160.046875 913.683594 159.414062 C 913.566406 156.027344 914.976562 152.777344 916.324219 149.746094 C 916.679688 149.515625 917.5625 151.957031 917.730469 152.25 C 918.855469 154.207031 920.464844 156.207031 922.035156 157.820312 C 923.332031 159.152344 924.914062 160.230469 926.042969 161.660156 Z M 926.042969 161.664062 " fill-opacity="1" fill-rule="nonzero"/></g></g></g><g clip-path="url(#dd9e54b36d)"><g clip-path="url(#707ac75654)"><g clip-path="url(#67eb3b0f18)"><path fill="#ad1867" d="M 983.628906 175.949219 C 984.386719 175.382812 985.550781 175.371094 986.476562 175.109375 C 991.097656 173.820312 993.101562 172.507812 997.074219 170.121094 C 997.34375 169.960938 997.460938 169.722656 997.636719 170.140625 C 997.605469 173.386719 997.246094 176.949219 995.394531 179.675781 C 991.578125 178.121094 987.667969 176.8125 983.625 175.949219 Z M 983.628906 175.949219 " fill-opacity="1" fill-rule="nonzero"/></g></g></g></g></g></svg>