<svg xmlns="http://www.w3.org/2000/svg" xmlns:xlink="http://www.w3.org/1999/xlink" width="1920" zoomAndPan="magnify" viewBox="0 0 1440 675.000002" height="900" preserveAspectRatio="xMidYMid meet" version="1.0"><defs><g/><clipPath id="c735424dee"><path d="M 1.066406 0 L 1438.933594 0 L 1438.933594 674 L 1.066406 674 Z M 1.066406 0 " clip-rule="nonzero"/></clipPath><clipPath id="1cb9846384"><path d="M 1.066406 75 L 1435 75 L 1435 540 L 1.066406 540 Z M 1.066406 75 " clip-rule="nonzero"/></clipPath><clipPath id="f30e0d38af"><path d="M 0.0664062 0.0078125 L 1433.621094 0.0078125 L 1433.621094 402 L 0.0664062 402 Z M 0.0664062 0.0078125 " clip-rule="nonzero"/></clipPath><clipPath id="20e6974e96"><path d="M 0.0664062 84 L 143 84 L 143 281 L 0.0664062 281 Z M 0.0664062 84 " clip-rule="nonzero"/></clipPath><clipPath id="ddc1b20d93"><rect x="0" width="1434" y="0" height="402"/></clipPath><clipPath id="26b8c84adf"><path d="M 29 350 L 1433 350 L 1433 464.203125 L 29 464.203125 Z M 29 350 " clip-rule="nonzero"/></clipPath><clipPath id="4abf11710a"><path d="M 0.0625 24 L 54 24 L 54 91 L 0.0625 91 Z M 0.0625 24 " clip-rule="nonzero"/></clipPath><clipPath id="ec11f7b339"><rect x="0" width="1404" y="0" height="115"/></clipPath><clipPath id="66a3bdca72"><path d="M 1010 195 L 1108 195 L 1108 295 L 1010 295 Z M 1010 195 " clip-rule="nonzero"/></clipPath><clipPath id="4721dbf034"><path d="M 1024.855469 137.371094 L 1147.726562 167.851562 L 1113.402344 306.203125 L 990.535156 275.722656 Z M 1024.855469 137.371094 " clip-rule="nonzero"/></clipPath><clipPath id="26515efd1e"><path d="M 1024.855469 137.371094 L 1147.726562 167.851562 L 1113.402344 306.203125 L 990.535156 275.722656 Z M 1024.855469 137.371094 " clip-rule="nonzero"/></clipPath><clipPath id="e2cb93a2cb"><path d="M 1062 151 L 1100 151 L 1100 198 L 1062 198 Z M 1062 151 " clip-rule="nonzero"/></clipPath><clipPath id="eed8810b9c"><path d="M 1024.855469 137.371094 L 1147.726562 167.851562 L 1113.402344 306.203125 L 990.535156 275.722656 Z M 1024.855469 137.371094 " clip-rule="nonzero"/></clipPath><clipPath id="be6eb82885"><path d="M 1024.855469 137.371094 L 1147.726562 167.851562 L 1113.402344 306.203125 L 990.535156 275.722656 Z M 1024.855469 137.371094 " clip-rule="nonzero"/></clipPath><clipPath id="c51c28b61a"><path d="M 1087 199 L 1134 199 L 1134 233 L 1087 233 Z M 1087 199 " clip-rule="nonzero"/></clipPath><clipPath id="7b22af3b1a"><path d="M 1024.855469 137.371094 L 1147.726562 167.851562 L 1113.402344 306.203125 L 990.535156 275.722656 Z M 1024.855469 137.371094 " clip-rule="nonzero"/></clipPath><clipPath id="b7154468fa"><path d="M 1024.855469 137.371094 L 1147.726562 167.851562 L 1113.402344 306.203125 L 990.535156 275.722656 Z M 1024.855469 137.371094 " clip-rule="nonzero"/></clipPath><clipPath id="9599ac0681"><path d="M 1010 181 L 1060 181 L 1060 219 L 1010 219 Z M 1010 181 " clip-rule="nonzero"/></clipPath><clipPath id="73220a4ab3"><path d="M 1024.855469 137.371094 L 1147.726562 167.851562 L 1113.402344 306.203125 L 990.535156 275.722656 Z M 1024.855469 137.371094 " clip-rule="nonzero"/></clipPath><clipPath id="216bd25f82"><path d="M 1024.855469 137.371094 L 1147.726562 167.851562 L 1113.402344 306.203125 L 990.535156 275.722656 Z M 1024.855469 137.371094 " clip-rule="nonzero"/></clipPath><clipPath id="dad3e18edb"><path d="M 1030 169 L 1045 169 L 1045 184 L 1030 184 Z M 1030 169 " clip-rule="nonzero"/></clipPath><clipPath id="1ab2b6a421"><path d="M 1024.855469 137.371094 L 1147.726562 167.851562 L 1113.402344 306.203125 L 990.535156 275.722656 Z M 1024.855469 137.371094 " clip-rule="nonzero"/></clipPath><clipPath id="1881cad688"><path d="M 1024.855469 137.371094 L 1147.726562 167.851562 L 1113.402344 306.203125 L 990.535156 275.722656 Z M 1024.855469 137.371094 " clip-rule="nonzero"/></clipPath><clipPath id="1b5f749156"><path d="M 1109 192 L 1126 192 L 1126 204 L 1109 204 Z M 1109 192 " clip-rule="nonzero"/></clipPath><clipPath id="fcd2b9bbd1"><path d="M 1024.855469 137.371094 L 1147.726562 167.851562 L 1113.402344 306.203125 L 990.535156 275.722656 Z M 1024.855469 137.371094 " clip-rule="nonzero"/></clipPath><clipPath id="444b07ef79"><path d="M 1024.855469 137.371094 L 1147.726562 167.851562 L 1113.402344 306.203125 L 990.535156 275.722656 Z M 1024.855469 137.371094 " clip-rule="nonzero"/></clipPath><clipPath id="21ed4a4c02"><rect x="0" width="1434" y="0" height="465"/></clipPath></defs><g clip-path="url(#c735424dee)"><path fill="#ffffff" d="M 1.066406 0 L 1438.933594 0 L 1438.933594 674 L 1.066406 674 Z M 1.066406 0 " fill-opacity="1" fill-rule="nonzero"/><path fill="#ffffff" d="M 1.066406 0 L 1438.933594 0 L 1438.933594 674 L 1.066406 674 Z M 1.066406 0 " fill-opacity="1" fill-rule="nonzero"/></g><g clip-path="url(#1cb9846384)"><g transform="matrix(1, 0, 0, 1, 1, 75)"><g clip-path="url(#21ed4a4c02)"><g clip-path="url(#f30e0d38af)"><g transform="matrix(1, 0, 0, 1, 0, -0.000000000000014211)"><g clip-path="url(#ddc1b20d93)"><g clip-path="url(#20e6974e96)"><g fill="#292b2a" fill-opacity="1"><g transform="translate(-6.527131, 280.996589)"><g><path d="M 3.609375 -196.734375 L 68.25 -196.734375 C 78.15625 -196.734375 87.789062 -195.125 97.15625 -191.90625 C 106.53125 -188.695312 114.226562 -183.675781 120.25 -176.84375 C 126.269531 -170.019531 129.28125 -160.859375 129.28125 -149.359375 C 129.28125 -141.859375 127.070312 -135.097656 122.65625 -129.078125 C 118.238281 -123.054688 112.679688 -118.101562 105.984375 -114.21875 C 99.296875 -110.34375 92.472656 -107.867188 85.515625 -106.796875 C 95.148438 -105.992188 104.914062 -103.515625 114.8125 -99.359375 C 124.71875 -95.210938 132.953125 -89.390625 139.515625 -81.890625 C 146.078125 -74.398438 149.359375 -65.035156 149.359375 -53.796875 C 149.359375 -43.085938 147.082031 -34.1875 142.53125 -27.09375 C 137.976562 -20 131.882812 -14.507812 124.25 -10.625 C 116.625 -6.75 108.257812 -4.007812 99.15625 -2.40625 C 90.0625 -0.800781 81.097656 0 72.265625 0 L 3.609375 0 C 10.304688 -2.945312 14.457031 -7.429688 16.0625 -13.453125 C 17.664062 -19.472656 18.46875 -25.5625 18.46875 -31.71875 C 18.46875 -40.007812 18.46875 -47.898438 18.46875 -55.390625 C 18.46875 -62.890625 19.269531 -69.851562 20.875 -76.28125 C 22.476562 -82.707031 25.6875 -88.394531 30.5 -93.34375 C 35.320312 -98.289062 42.6875 -102.238281 52.59375 -105.1875 C 39.207031 -109.46875 30.101562 -115.554688 25.28125 -123.453125 C 20.46875 -131.347656 18.0625 -141.988281 18.0625 -155.375 C 18.0625 -160.457031 18.0625 -165.675781 18.0625 -171.03125 C 18.0625 -176.382812 17.054688 -181.398438 15.046875 -186.078125 C 13.046875 -190.765625 9.234375 -194.316406 3.609375 -196.734375 Z M 41.359375 -193.515625 L 41.359375 -130.890625 C 41.359375 -124.992188 43.363281 -119.503906 47.375 -114.421875 C 51.382812 -109.335938 56.335938 -106.796875 62.234375 -106.796875 C 75.609375 -106.796875 86.039062 -110.539062 93.53125 -118.03125 C 101.03125 -125.53125 104.78125 -135.972656 104.78125 -149.359375 C 104.78125 -161.128906 101.5 -171.429688 94.9375 -180.265625 C 88.382812 -189.097656 78.820312 -193.515625 66.25 -193.515625 Z M 40.953125 -78.6875 L 40.953125 -3.21875 L 78.296875 -3.21875 C 92.742188 -3.21875 103.78125 -8.164062 111.40625 -18.0625 C 119.039062 -27.96875 122.859375 -39.742188 122.859375 -53.390625 C 122.859375 -67.578125 118.84375 -79.488281 110.8125 -89.125 C 102.78125 -98.757812 91.269531 -103.578125 76.28125 -103.578125 L 63.84375 -103.578125 C 57.6875 -103.578125 52.332031 -100.96875 47.78125 -95.75 C 43.226562 -90.53125 40.953125 -84.84375 40.953125 -78.6875 Z M 40.953125 -78.6875 "/></g></g></g></g><g fill="#292b2a" fill-opacity="1"><g transform="translate(148.04602, 280.996589)"><g><path d="M 9.234375 -70.265625 C 9.234375 -83.378906 12.441406 -95.222656 18.859375 -105.796875 C 25.285156 -116.367188 33.851562 -124.863281 44.5625 -131.28125 C 55.269531 -137.707031 67.046875 -140.921875 79.890625 -140.921875 C 93.003906 -140.921875 104.847656 -137.707031 115.421875 -131.28125 C 125.992188 -124.863281 134.492188 -116.367188 140.921875 -105.796875 C 147.347656 -95.222656 150.5625 -83.378906 150.5625 -70.265625 C 150.5625 -57.148438 147.414062 -45.304688 141.125 -34.734375 C 134.832031 -24.160156 126.398438 -15.660156 115.828125 -9.234375 C 105.253906 -2.804688 93.410156 0.40625 80.296875 0.40625 C 67.453125 0.40625 55.609375 -2.804688 44.765625 -9.234375 C 33.921875 -15.660156 25.285156 -24.160156 18.859375 -34.734375 C 12.441406 -45.304688 9.234375 -57.148438 9.234375 -70.265625 Z M 75.484375 -136.90625 C 65.578125 -136.90625 57.410156 -133.554688 50.984375 -126.859375 C 44.566406 -120.171875 39.882812 -112.078125 36.9375 -102.578125 C 33.988281 -93.078125 32.515625 -84.046875 32.515625 -75.484375 C 32.515625 -68.253906 33.582031 -60.488281 35.71875 -52.1875 C 37.863281 -43.894531 41.007812 -36 45.15625 -28.5 C 49.3125 -21.007812 54.597656 -14.921875 61.015625 -10.234375 C 67.441406 -5.554688 74.941406 -3.21875 83.515625 -3.21875 C 93.679688 -3.21875 101.84375 -6.5625 108 -13.25 C 114.15625 -19.9375 118.703125 -28.097656 121.640625 -37.734375 C 124.585938 -47.367188 126.0625 -56.335938 126.0625 -64.640625 C 126.0625 -71.867188 125.054688 -79.628906 123.046875 -87.921875 C 121.046875 -96.222656 117.96875 -104.117188 113.8125 -111.609375 C 109.664062 -119.109375 104.378906 -125.195312 97.953125 -129.875 C 91.535156 -134.5625 84.046875 -136.90625 75.484375 -136.90625 Z M 75.484375 -136.90625 "/></g></g></g><g fill="#292b2a" fill-opacity="1"><g transform="translate(305.429571, 280.996589)"><g><path d="M 102.375 -140.515625 C 108.53125 -140.515625 113.414062 -138.707031 117.03125 -135.09375 C 120.644531 -131.476562 122.453125 -126.726562 122.453125 -120.84375 L 122.453125 -28.109375 C 122.453125 -25.429688 122.851562 -22.285156 123.65625 -18.671875 C 124.457031 -15.054688 125.796875 -11.910156 127.671875 -9.234375 C 129.546875 -6.554688 132.222656 -5.21875 135.703125 -5.21875 C 141.054688 -5.21875 145.203125 -8.023438 148.140625 -13.640625 C 151.085938 -19.265625 152.828125 -24.21875 153.359375 -28.5 L 154.96875 -28.109375 C 153.894531 -20.609375 151.21875 -13.914062 146.9375 -8.03125 C 142.65625 -2.144531 136.234375 0.796875 127.671875 0.796875 C 119.367188 0.796875 113.144531 -1.941406 109 -7.421875 C 104.851562 -12.910156 102.78125 -19.535156 102.78125 -27.296875 C 97.15625 -19.003906 89.660156 -12.179688 80.296875 -6.828125 C 70.929688 -1.472656 61.160156 1.203125 50.984375 1.203125 C 36.265625 1.203125 25.757812 -3.742188 19.46875 -13.640625 C 13.175781 -23.546875 10.03125 -35.054688 10.03125 -48.171875 L 10.03125 -140.515625 C 16.1875 -140.515625 21.070312 -138.773438 24.6875 -135.296875 C 28.300781 -131.816406 30.109375 -127 30.109375 -120.84375 L 30.109375 -44.5625 C 30.109375 -38.132812 31.046875 -31.910156 32.921875 -25.890625 C 34.796875 -19.867188 37.941406 -14.847656 42.359375 -10.828125 C 46.773438 -6.816406 52.726562 -4.8125 60.21875 -4.8125 C 69.320312 -4.8125 77.6875 -7.625 85.3125 -13.25 C 92.9375 -18.875 98.625 -25.429688 102.375 -32.921875 Z M 102.375 -140.515625 "/></g></g></g><g fill="#292b2a" fill-opacity="1"><g transform="translate(447.556583, 280.996589)"><g><path d="M 71.859375 -29.703125 C 57.140625 -29.703125 44.160156 -34.117188 32.921875 -42.953125 C 28.910156 -41.347656 25.5 -38.804688 22.6875 -35.328125 C 19.875 -31.847656 18.46875 -27.832031 18.46875 -23.28125 C 18.46875 -17.394531 20.472656 -12.910156 24.484375 -9.828125 C 28.503906 -6.753906 33.191406 -5.21875 38.546875 -5.21875 C 47.640625 -5.21875 56.398438 -6.6875 64.828125 -9.625 C 73.265625 -12.570312 81.765625 -15.582031 90.328125 -18.65625 C 98.898438 -21.738281 107.734375 -23.28125 116.828125 -23.28125 C 126.203125 -23.28125 133.765625 -20.398438 139.515625 -14.640625 C 145.265625 -8.890625 148.140625 -1.332031 148.140625 8.03125 C 148.140625 19.269531 144.796875 28.566406 138.109375 35.921875 C 131.421875 43.285156 123.191406 48.773438 113.421875 52.390625 C 103.648438 56.003906 93.8125 57.8125 83.90625 57.8125 C 73.46875 57.8125 63.628906 55.9375 54.390625 52.1875 C 45.160156 48.445312 37.800781 42.757812 32.3125 35.125 C 26.832031 27.5 24.222656 17.929688 24.484375 6.421875 C 21.003906 3.472656 18.328125 -0.269531 16.453125 -4.8125 C 14.585938 -9.363281 13.65625 -13.914062 13.65625 -18.46875 C 13.65625 -24.09375 15.125 -29.3125 18.0625 -34.125 C 21.007812 -38.945312 25.023438 -42.695312 30.109375 -45.375 C 17.265625 -56.613281 10.84375 -70.394531 10.84375 -86.71875 C 10.84375 -97.695312 13.785156 -107.398438 19.671875 -115.828125 C 25.554688 -124.253906 33.25 -130.941406 42.75 -135.890625 C 52.257812 -140.847656 62.097656 -143.328125 72.265625 -143.328125 C 84.046875 -143.328125 94.882812 -140.519531 104.78125 -134.90625 C 106.925781 -137.570312 110.003906 -140.644531 114.015625 -144.125 C 118.035156 -147.613281 122.316406 -150.691406 126.859375 -153.359375 C 131.410156 -156.035156 135.296875 -157.375 138.515625 -157.375 L 138.515625 -137.703125 C 135.035156 -138.503906 131.421875 -138.90625 127.671875 -138.90625 C 124.191406 -138.90625 120.644531 -138.570312 117.03125 -137.90625 C 113.414062 -137.238281 110.140625 -135.832031 107.203125 -133.6875 C 115.492188 -128.601562 122.113281 -121.976562 127.0625 -113.8125 C 132.019531 -105.65625 134.5 -96.625 134.5 -86.71875 C 134.5 -75.75 131.488281 -65.910156 125.46875 -57.203125 C 119.445312 -48.503906 111.679688 -41.742188 102.171875 -36.921875 C 92.671875 -32.109375 82.566406 -29.703125 71.859375 -29.703125 Z M 33.71875 -90.734375 C 33.71875 -82.972656 35.253906 -74.539062 38.328125 -65.4375 C 41.410156 -56.34375 46.097656 -48.648438 52.390625 -42.359375 C 58.679688 -36.066406 66.378906 -32.921875 75.484375 -32.921875 C 83.515625 -32.921875 90.140625 -35.597656 95.359375 -40.953125 C 100.578125 -46.304688 104.457031 -52.863281 107 -60.625 C 109.539062 -68.382812 110.8125 -75.609375 110.8125 -82.296875 C 110.8125 -90.328125 109.203125 -98.828125 105.984375 -107.796875 C 102.773438 -116.765625 98.023438 -124.394531 91.734375 -130.6875 C 85.441406 -136.976562 77.613281 -140.125 68.25 -140.125 C 60.488281 -140.125 54 -137.378906 48.78125 -131.890625 C 43.5625 -126.398438 39.742188 -119.835938 37.328125 -112.203125 C 34.921875 -104.578125 33.71875 -97.421875 33.71875 -90.734375 Z M 28.109375 8.828125 C 28.109375 18.734375 30.71875 27.097656 35.9375 33.921875 C 41.15625 40.742188 47.976562 45.894531 56.40625 49.375 C 64.84375 52.863281 73.742188 54.609375 83.109375 54.609375 C 88.722656 54.609375 94.875 53.867188 101.5625 52.390625 C 108.257812 50.921875 114.753906 48.644531 121.046875 45.5625 C 127.335938 42.488281 132.488281 38.472656 136.5 33.515625 C 140.519531 28.566406 142.53125 22.613281 142.53125 15.65625 C 142.53125 9.5 140.382812 5.015625 136.09375 2.203125 C 131.8125 -0.597656 126.863281 -2 121.25 -2 C 112.945312 -2 104.710938 -0.664062 96.546875 2 C 88.390625 4.675781 80.363281 7.351562 72.46875 10.03125 C 64.570312 12.707031 56.34375 14.046875 47.78125 14.046875 C 44.300781 14.046875 40.882812 13.644531 37.53125 12.84375 C 34.1875 12.039062 31.046875 10.703125 28.109375 8.828125 Z M 28.109375 8.828125 "/></g></g></g><g fill="#292b2a" fill-opacity="1"><g transform="translate(595.705902, 280.996589)"><g><path d="M 32.921875 -92.34375 L 11.640625 -92.34375 C 13.515625 -101.976562 17.660156 -110.472656 24.078125 -117.828125 C 30.503906 -125.191406 38.269531 -131.015625 47.375 -135.296875 C 56.476562 -139.578125 65.847656 -141.71875 75.484375 -141.71875 C 91.535156 -141.71875 102.707031 -136.695312 109 -126.65625 C 115.289062 -116.625 118.4375 -104.25 118.4375 -89.53125 L 118.4375 -27.703125 C 118.4375 -25.023438 118.835938 -21.945312 119.640625 -18.46875 C 120.441406 -14.988281 121.78125 -11.976562 123.65625 -9.4375 C 125.53125 -6.894531 128.207031 -5.625 131.6875 -5.625 C 137.039062 -5.625 141.117188 -8.363281 143.921875 -13.84375 C 146.734375 -19.332031 148.546875 -24.21875 149.359375 -28.5 L 150.5625 -28.109375 C 149.488281 -20.609375 146.875 -13.914062 142.71875 -8.03125 C 138.570312 -2.144531 132.21875 0.796875 123.65625 0.796875 C 116.425781 0.796875 111.003906 -0.941406 107.390625 -4.421875 C 103.785156 -7.898438 101.378906 -12.378906 100.171875 -17.859375 C 98.960938 -23.347656 98.359375 -29.035156 98.359375 -34.921875 C 94.347656 -24.484375 88.125 -15.851562 79.6875 -9.03125 C 71.257812 -2.207031 61.15625 1.203125 49.375 1.203125 C 38.675781 1.203125 29.175781 -2.070312 20.875 -8.625 C 12.582031 -15.1875 8.4375 -24.085938 8.4375 -35.328125 C 8.4375 -44.429688 11.242188 -51.859375 16.859375 -57.609375 C 22.484375 -63.367188 29.507812 -68.253906 37.9375 -72.265625 C 46.375 -76.285156 54.804688 -80.164062 63.234375 -83.90625 C 71.660156 -87.65625 78.6875 -92.070312 84.3125 -97.15625 C 89.9375 -102.238281 92.75 -108.929688 92.75 -117.234375 C 92.75 -123.390625 90.941406 -128.609375 87.328125 -132.890625 C 83.710938 -137.171875 78.691406 -139.3125 72.265625 -139.3125 C 65.035156 -139.3125 58.410156 -137.367188 52.390625 -133.484375 C 46.367188 -129.609375 41.617188 -124.457031 38.140625 -118.03125 C 34.660156 -111.613281 32.921875 -104.789062 32.921875 -97.5625 C 32.921875 -96.757812 32.921875 -95.890625 32.921875 -94.953125 C 32.921875 -94.015625 32.921875 -93.144531 32.921875 -92.34375 Z M 98.359375 -50.1875 L 98.359375 -100.765625 C 98.359375 -103.984375 98.15625 -107.128906 97.75 -110.203125 C 97.351562 -113.285156 96.488281 -116.296875 95.15625 -119.234375 C 95.957031 -110.941406 94.21875 -104.1875 89.9375 -98.96875 C 85.65625 -93.75 80.234375 -89.195312 73.671875 -85.3125 C 67.117188 -81.4375 60.425781 -77.488281 53.59375 -73.46875 C 46.769531 -69.457031 41.015625 -64.570312 36.328125 -58.8125 C 31.648438 -53.0625 29.3125 -45.503906 29.3125 -36.140625 C 29.3125 -27.835938 31.648438 -20.738281 36.328125 -14.84375 C 41.015625 -8.957031 47.773438 -6.015625 56.609375 -6.015625 C 63.835938 -6.015625 70.660156 -8.222656 77.078125 -12.640625 C 83.503906 -17.054688 88.65625 -22.675781 92.53125 -29.5 C 96.414062 -36.332031 98.359375 -43.226562 98.359375 -50.1875 Z M 98.359375 -50.1875 "/></g></g></g><g fill="#292b2a" fill-opacity="1"><g transform="translate(733.416578, 280.996589)"><g><path d="M 30.515625 -160.1875 C 26.765625 -160.1875 23.617188 -161.390625 21.078125 -163.796875 C 18.535156 -166.210938 17.265625 -169.296875 17.265625 -173.046875 C 17.265625 -177.054688 18.535156 -180.195312 21.078125 -182.46875 C 23.617188 -184.75 26.765625 -185.890625 30.515625 -185.890625 C 34.265625 -185.890625 37.34375 -184.679688 39.75 -182.265625 C 42.15625 -179.859375 43.359375 -176.785156 43.359375 -173.046875 C 43.359375 -169.296875 42.15625 -166.210938 39.75 -163.796875 C 37.34375 -161.390625 34.265625 -160.1875 30.515625 -160.1875 Z M 21.28125 -140.515625 C 27.164062 -140.515625 31.914062 -138.707031 35.53125 -135.09375 C 39.144531 -131.476562 40.953125 -126.597656 40.953125 -120.453125 L 41.359375 -28.109375 C 41.359375 -25.429688 41.691406 -22.351562 42.359375 -18.875 C 43.023438 -15.394531 44.296875 -12.316406 46.171875 -9.640625 C 48.046875 -6.960938 50.722656 -5.625 54.203125 -5.625 C 59.554688 -5.625 63.703125 -8.363281 66.640625 -13.84375 C 69.585938 -19.332031 71.460938 -24.21875 72.265625 -28.5 L 73.46875 -28.109375 C 72.394531 -20.609375 69.785156 -13.914062 65.640625 -8.03125 C 61.492188 -2.144531 55.140625 0.796875 46.578125 0.796875 C 38.273438 0.796875 31.984375 -1.8125 27.703125 -7.03125 C 23.421875 -12.25 21.28125 -18.875 21.28125 -26.90625 Z M 21.28125 -140.515625 "/></g></g></g><g fill="#292b2a" fill-opacity="1"><g transform="translate(794.041362, 280.996589)"><g><path d="M 138.90625 0.796875 C 130.613281 0.796875 124.390625 -2.078125 120.234375 -7.828125 C 116.085938 -13.578125 113.882812 -21.40625 113.625 -31.3125 L 113.625 -83.90625 C 113.625 -92.207031 113.085938 -100.304688 112.015625 -108.203125 C 110.941406 -116.097656 108.394531 -122.65625 104.375 -127.875 C 100.363281 -133.09375 93.941406 -135.703125 85.109375 -135.703125 C 75.472656 -135.703125 66.707031 -132.285156 58.8125 -125.453125 C 50.914062 -118.628906 45.226562 -110.9375 41.75 -102.375 L 41.75 -20.078125 C 41.75 -14.992188 43.019531 -10.910156 45.5625 -7.828125 C 48.101562 -4.753906 51.519531 -2.144531 55.8125 0 L 7.234375 0 C 14.191406 -2.945312 18.335938 -6.628906 19.671875 -11.046875 C 21.015625 -15.460938 21.6875 -21.015625 21.6875 -27.703125 L 21.6875 -140.515625 C 28.375 -140.515625 33.054688 -138.972656 35.734375 -135.890625 C 38.410156 -132.816406 40.082031 -128.867188 40.75 -124.046875 C 41.414062 -119.234375 41.75 -114.285156 41.75 -109.203125 C 47.101562 -118.566406 54.53125 -126.394531 64.03125 -132.6875 C 73.539062 -138.976562 83.644531 -142.125 94.34375 -142.125 C 103.71875 -142.125 111.015625 -140.113281 116.234375 -136.09375 C 121.453125 -132.082031 125.398438 -126.796875 128.078125 -120.234375 C 130.753906 -113.679688 132.425781 -106.390625 133.09375 -98.359375 C 133.757812 -90.328125 134.09375 -82.429688 134.09375 -74.671875 L 133.6875 -36.140625 C 133.957031 -31.847656 134.289062 -27.289062 134.6875 -22.46875 C 135.09375 -17.65625 136.234375 -13.578125 138.109375 -10.234375 C 139.984375 -6.890625 142.925781 -5.21875 146.9375 -5.21875 C 152.289062 -5.21875 156.441406 -8.023438 159.390625 -13.640625 C 162.335938 -19.265625 164.078125 -24.21875 164.609375 -28.5 L 165.8125 -28.109375 C 164.738281 -20.609375 162.128906 -13.914062 157.984375 -8.03125 C 153.835938 -2.144531 147.476562 0.796875 138.90625 0.796875 Z M 138.90625 0.796875 "/></g></g></g><g fill="#292b2a" fill-opacity="1"><g transform="translate(947.008589, 280.996589)"><g><path d="M 15.25 -98.359375 C 15.25 -116.828125 19.734375 -133.554688 28.703125 -148.546875 C 37.671875 -163.535156 49.71875 -175.445312 64.84375 -184.28125 C 79.96875 -193.113281 96.628906 -197.53125 114.828125 -197.53125 C 133.023438 -197.53125 149.617188 -193.046875 164.609375 -184.078125 C 179.597656 -175.109375 191.507812 -163.128906 200.34375 -148.140625 C 209.175781 -133.160156 213.59375 -116.566406 213.59375 -98.359375 C 213.59375 -80.960938 209.441406 -64.96875 201.140625 -50.375 C 192.847656 -35.789062 181.675781 -23.878906 167.625 -14.640625 C 153.570312 -5.410156 137.847656 -0.265625 120.453125 0.796875 L 162.203125 19.265625 C 156.304688 21.140625 150.75 24.820312 145.53125 30.3125 C 140.3125 35.800781 136.632812 41.222656 134.5 46.578125 L 114.828125 1.609375 C 96.890625 -0.796875 80.359375 -6.210938 65.234375 -14.640625 C 50.117188 -23.078125 38.007812 -34.320312 28.90625 -48.375 C 19.800781 -62.425781 15.25 -79.085938 15.25 -98.359375 Z M 43.359375 -103.578125 C 43.359375 -92.609375 45.03125 -81.234375 48.375 -69.453125 C 51.71875 -57.679688 56.664062 -46.640625 63.21875 -36.328125 C 69.78125 -26.023438 77.878906 -17.726562 87.515625 -11.4375 C 97.160156 -5.144531 108.269531 -2 120.84375 -2 C 131.820312 -2 141.390625 -4.941406 149.546875 -10.828125 C 157.710938 -16.722656 164.472656 -24.285156 169.828125 -33.515625 C 175.179688 -42.753906 179.128906 -52.660156 181.671875 -63.234375 C 184.210938 -73.804688 185.484375 -83.773438 185.484375 -93.140625 C 185.484375 -104.117188 183.8125 -115.492188 180.46875 -127.265625 C 177.125 -139.046875 172.171875 -150.019531 165.609375 -160.1875 C 159.054688 -170.363281 150.894531 -178.59375 141.125 -184.875 C 131.351562 -191.164062 120.175781 -194.3125 107.59375 -194.3125 C 96.882812 -194.3125 87.445312 -191.367188 79.28125 -185.484375 C 71.125 -179.597656 64.4375 -172.035156 59.21875 -162.796875 C 54 -153.566406 50.050781 -143.734375 47.375 -133.296875 C 44.695312 -122.859375 43.359375 -112.953125 43.359375 -103.578125 Z M 43.359375 -103.578125 "/></g></g></g><g fill="#292b2a" fill-opacity="1"><g transform="translate(1161.403534, 280.996589)"><g><path d="M 30.515625 -160.1875 C 26.765625 -160.1875 23.617188 -161.390625 21.078125 -163.796875 C 18.535156 -166.210938 17.265625 -169.296875 17.265625 -173.046875 C 17.265625 -177.054688 18.535156 -180.195312 21.078125 -182.46875 C 23.617188 -184.75 26.765625 -185.890625 30.515625 -185.890625 C 34.265625 -185.890625 37.34375 -184.679688 39.75 -182.265625 C 42.15625 -179.859375 43.359375 -176.785156 43.359375 -173.046875 C 43.359375 -169.296875 42.15625 -166.210938 39.75 -163.796875 C 37.34375 -161.390625 34.265625 -160.1875 30.515625 -160.1875 Z M 21.28125 -140.515625 C 27.164062 -140.515625 31.914062 -138.707031 35.53125 -135.09375 C 39.144531 -131.476562 40.953125 -126.597656 40.953125 -120.453125 L 41.359375 -28.109375 C 41.359375 -25.429688 41.691406 -22.351562 42.359375 -18.875 C 43.023438 -15.394531 44.296875 -12.316406 46.171875 -9.640625 C 48.046875 -6.960938 50.722656 -5.625 54.203125 -5.625 C 59.554688 -5.625 63.703125 -8.363281 66.640625 -13.84375 C 69.585938 -19.332031 71.460938 -24.21875 72.265625 -28.5 L 73.46875 -28.109375 C 72.394531 -20.609375 69.785156 -13.914062 65.640625 -8.03125 C 61.492188 -2.144531 55.140625 0.796875 46.578125 0.796875 C 38.273438 0.796875 31.984375 -1.8125 27.703125 -7.03125 C 23.421875 -12.25 21.28125 -18.875 21.28125 -26.90625 Z M 21.28125 -140.515625 "/></g></g></g><g fill="#292b2a" fill-opacity="1"><g transform="translate(1222.028371, 280.996589)"><g><path d="M 72.265625 -28.5 L 73.875 -28.109375 C 72.800781 -20.609375 70.125 -13.914062 65.84375 -8.03125 C 61.5625 -2.144531 55.140625 0.796875 46.578125 0.796875 C 38.273438 0.796875 31.984375 -1.8125 27.703125 -7.03125 C 23.421875 -12.25 21.28125 -19.003906 21.28125 -27.296875 L 21.28125 -130.484375 C 21.28125 -145.472656 24.425781 -159.992188 30.71875 -174.046875 C 37.007812 -188.097656 46.039062 -199.671875 57.8125 -208.765625 C 69.59375 -217.867188 83.507812 -222.421875 99.5625 -222.421875 L 99.5625 -201.140625 C 95.019531 -202.210938 90.335938 -203.21875 85.515625 -204.15625 C 80.703125 -205.09375 75.882812 -205.5625 71.0625 -205.5625 C 63.300781 -205.5625 57.34375 -203.617188 53.1875 -199.734375 C 49.039062 -195.859375 46.164062 -190.84375 44.5625 -184.6875 C 42.957031 -178.53125 42.019531 -172.035156 41.75 -165.203125 C 41.488281 -158.378906 41.359375 -152.160156 41.359375 -146.546875 L 41.359375 -28.109375 C 41.359375 -24.085938 42.226562 -19.332031 43.96875 -13.84375 C 45.707031 -8.363281 49.117188 -5.625 54.203125 -5.625 C 59.554688 -5.625 63.703125 -8.363281 66.640625 -13.84375 C 69.585938 -19.332031 71.460938 -24.21875 72.265625 -28.5 Z M 72.265625 -28.5 "/></g></g></g><g fill="#292b2a" fill-opacity="1"><g transform="translate(1281.850172, 280.996589)"><g><path d="M 32.921875 -92.34375 L 11.640625 -92.34375 C 13.515625 -101.976562 17.660156 -110.472656 24.078125 -117.828125 C 30.503906 -125.191406 38.269531 -131.015625 47.375 -135.296875 C 56.476562 -139.578125 65.847656 -141.71875 75.484375 -141.71875 C 91.535156 -141.71875 102.707031 -136.695312 109 -126.65625 C 115.289062 -116.625 118.4375 -104.25 118.4375 -89.53125 L 118.4375 -27.703125 C 118.4375 -25.023438 118.835938 -21.945312 119.640625 -18.46875 C 120.441406 -14.988281 121.78125 -11.976562 123.65625 -9.4375 C 125.53125 -6.894531 128.207031 -5.625 131.6875 -5.625 C 137.039062 -5.625 141.117188 -8.363281 143.921875 -13.84375 C 146.734375 -19.332031 148.546875 -24.21875 149.359375 -28.5 L 150.5625 -28.109375 C 149.488281 -20.609375 146.875 -13.914062 142.71875 -8.03125 C 138.570312 -2.144531 132.21875 0.796875 123.65625 0.796875 C 116.425781 0.796875 111.003906 -0.941406 107.390625 -4.421875 C 103.785156 -7.898438 101.378906 -12.378906 100.171875 -17.859375 C 98.960938 -23.347656 98.359375 -29.035156 98.359375 -34.921875 C 94.347656 -24.484375 88.125 -15.851562 79.6875 -9.03125 C 71.257812 -2.207031 61.15625 1.203125 49.375 1.203125 C 38.675781 1.203125 29.175781 -2.070312 20.875 -8.625 C 12.582031 -15.1875 8.4375 -24.085938 8.4375 -35.328125 C 8.4375 -44.429688 11.242188 -51.859375 16.859375 -57.609375 C 22.484375 -63.367188 29.507812 -68.253906 37.9375 -72.265625 C 46.375 -76.285156 54.804688 -80.164062 63.234375 -83.90625 C 71.660156 -87.65625 78.6875 -92.070312 84.3125 -97.15625 C 89.9375 -102.238281 92.75 -108.929688 92.75 -117.234375 C 92.75 -123.390625 90.941406 -128.609375 87.328125 -132.890625 C 83.710938 -137.171875 78.691406 -139.3125 72.265625 -139.3125 C 65.035156 -139.3125 58.410156 -137.367188 52.390625 -133.484375 C 46.367188 -129.609375 41.617188 -124.457031 38.140625 -118.03125 C 34.660156 -111.613281 32.921875 -104.789062 32.921875 -97.5625 C 32.921875 -96.757812 32.921875 -95.890625 32.921875 -94.953125 C 32.921875 -94.015625 32.921875 -93.144531 32.921875 -92.34375 Z M 98.359375 -50.1875 L 98.359375 -100.765625 C 98.359375 -103.984375 98.15625 -107.128906 97.75 -110.203125 C 97.351562 -113.285156 96.488281 -116.296875 95.15625 -119.234375 C 95.957031 -110.941406 94.21875 -104.1875 89.9375 -98.96875 C 85.65625 -93.75 80.234375 -89.195312 73.671875 -85.3125 C 67.117188 -81.4375 60.425781 -77.488281 53.59375 -73.46875 C 46.769531 -69.457031 41.015625 -64.570312 36.328125 -58.8125 C 31.648438 -53.0625 29.3125 -45.503906 29.3125 -36.140625 C 29.3125 -27.835938 31.648438 -20.738281 36.328125 -14.84375 C 41.015625 -8.957031 47.773438 -6.015625 56.609375 -6.015625 C 63.835938 -6.015625 70.660156 -8.222656 77.078125 -12.640625 C 83.503906 -17.054688 88.65625 -22.675781 92.53125 -29.5 C 96.414062 -36.332031 98.359375 -43.226562 98.359375 -50.1875 Z M 98.359375 -50.1875 "/></g></g></g></g></g></g><g clip-path="url(#26b8c84adf)"><g transform="matrix(1, 0, 0, 1, 29, 350)"><g clip-path="url(#ec11f7b339)"><g clip-path="url(#4abf11710a)"><g fill="#292b2a" fill-opacity="1"><g transform="translate(0.323563, 90.025213)"><g><path d="M 23.234375 -59.109375 L 0.375 -59.109375 L 0.375 -65.0625 L 52.96875 -65.0625 L 52.96875 -59.109375 L 30.109375 -59.109375 L 30.109375 0 L 23.234375 0 Z M 23.234375 -59.109375 "/></g></g></g></g><g fill="#292b2a" fill-opacity="1"><g transform="translate(73.176179, 90.025213)"><g><path d="M 64.96875 -65.0625 L 64.96875 0 L 58.171875 0 L 58.171875 -30.015625 L 17.46875 -30.015625 L 17.46875 0 L 10.59375 0 L 10.59375 -65.0625 L 17.46875 -65.0625 L 17.46875 -36.0625 L 58.171875 -36.0625 L 58.171875 -65.0625 Z M 64.96875 -65.0625 "/></g></g></g><g fill="#292b2a" fill-opacity="1"><g transform="translate(168.236879, 90.025213)"><g><path d="M 56.59375 -5.953125 L 56.59375 0 L 10.59375 0 L 10.59375 -65.0625 L 55.203125 -65.0625 L 55.203125 -59.109375 L 17.46875 -59.109375 L 17.46875 -35.96875 L 51.109375 -35.96875 L 51.109375 -30.109375 L 17.46875 -30.109375 L 17.46875 -5.953125 Z M 56.59375 -5.953125 "/></g></g></g><g fill="#292b2a" fill-opacity="1"><g transform="translate(249.916965, 90.025213)"><g/></g></g><g fill="#292b2a" fill-opacity="1"><g transform="translate(293.778277, 90.025213)"><g><path d="M 23.234375 -59.109375 L 0.375 -59.109375 L 0.375 -65.0625 L 52.96875 -65.0625 L 52.96875 -59.109375 L 30.109375 -59.109375 L 30.109375 0 L 23.234375 0 Z M 23.234375 -59.109375 "/></g></g></g><g fill="#292b2a" fill-opacity="1"><g transform="translate(366.630892, 90.025213)"><g><path d="M 56.59375 -5.953125 L 56.59375 0 L 10.59375 0 L 10.59375 -65.0625 L 55.203125 -65.0625 L 55.203125 -59.109375 L 17.46875 -59.109375 L 17.46875 -35.96875 L 51.109375 -35.96875 L 51.109375 -30.109375 L 17.46875 -30.109375 L 17.46875 -5.953125 Z M 56.59375 -5.953125 "/></g></g></g><g fill="#292b2a" fill-opacity="1"><g transform="translate(448.311013, 90.025213)"><g><path d="M 55.015625 0 L 40.15625 -20.90625 C 38.476562 -20.71875 36.738281 -20.625 34.9375 -20.625 L 17.46875 -20.625 L 17.46875 0 L 10.59375 0 L 10.59375 -65.0625 L 34.9375 -65.0625 C 43.238281 -65.0625 49.742188 -63.078125 54.453125 -59.109375 C 59.171875 -55.140625 61.53125 -49.6875 61.53125 -42.75 C 61.53125 -37.664062 60.242188 -33.375 57.671875 -29.875 C 55.097656 -26.375 51.425781 -23.851562 46.65625 -22.3125 L 62.546875 0 Z M 34.765625 -26.484375 C 41.203125 -26.484375 46.125 -27.90625 49.53125 -30.75 C 52.9375 -33.601562 54.640625 -37.601562 54.640625 -42.75 C 54.640625 -48.019531 52.9375 -52.0625 49.53125 -54.875 C 46.125 -57.695312 41.203125 -59.109375 34.765625 -59.109375 L 17.46875 -59.109375 L 17.46875 -26.484375 Z M 34.765625 -26.484375 "/></g></g></g><g fill="#292b2a" fill-opacity="1"><g transform="translate(535.008802, 90.025213)"><g><path d="M 55.015625 0 L 40.15625 -20.90625 C 38.476562 -20.71875 36.738281 -20.625 34.9375 -20.625 L 17.46875 -20.625 L 17.46875 0 L 10.59375 0 L 10.59375 -65.0625 L 34.9375 -65.0625 C 43.238281 -65.0625 49.742188 -63.078125 54.453125 -59.109375 C 59.171875 -55.140625 61.53125 -49.6875 61.53125 -42.75 C 61.53125 -37.664062 60.242188 -33.375 57.671875 -29.875 C 55.097656 -26.375 51.425781 -23.851562 46.65625 -22.3125 L 62.546875 0 Z M 34.765625 -26.484375 C 41.203125 -26.484375 46.125 -27.90625 49.53125 -30.75 C 52.9375 -33.601562 54.640625 -37.601562 54.640625 -42.75 C 54.640625 -48.019531 52.9375 -52.0625 49.53125 -54.875 C 46.125 -57.695312 41.203125 -59.109375 34.765625 -59.109375 L 17.46875 -59.109375 L 17.46875 -26.484375 Z M 34.765625 -26.484375 "/></g></g></g><g fill="#292b2a" fill-opacity="1"><g transform="translate(621.706637, 90.025213)"><g><path d="M 51.390625 -17.375 L 15.15625 -17.375 L 7.34375 0 L 0.1875 0 L 29.921875 -65.0625 L 36.703125 -65.0625 L 66.453125 0 L 59.203125 0 Z M 48.890625 -22.953125 L 33.265625 -57.90625 L 17.65625 -22.953125 Z M 48.890625 -22.953125 "/></g></g></g><g fill="#292b2a" fill-opacity="1"><g transform="translate(707.846917, 90.025213)"><g><path d="M 38.84375 0.5625 C 32.40625 0.5625 26.597656 -0.863281 21.421875 -3.71875 C 16.242188 -6.570312 12.179688 -10.519531 9.234375 -15.5625 C 6.296875 -20.613281 4.828125 -26.269531 4.828125 -32.53125 C 4.828125 -38.789062 6.296875 -44.441406 9.234375 -49.484375 C 12.179688 -54.535156 16.257812 -58.484375 21.46875 -61.328125 C 26.675781 -64.179688 32.5 -65.609375 38.9375 -65.609375 C 43.769531 -65.609375 48.226562 -64.800781 52.3125 -63.1875 C 56.40625 -61.582031 59.878906 -59.234375 62.734375 -56.140625 L 58.359375 -51.765625 C 53.285156 -56.910156 46.875 -59.484375 39.125 -59.484375 C 33.976562 -59.484375 29.296875 -58.304688 25.078125 -55.953125 C 20.867188 -53.597656 17.570312 -50.375 15.1875 -46.28125 C 12.800781 -42.195312 11.609375 -37.613281 11.609375 -32.53125 C 11.609375 -27.445312 12.800781 -22.859375 15.1875 -18.765625 C 17.570312 -14.679688 20.867188 -11.460938 25.078125 -9.109375 C 29.296875 -6.753906 33.976562 -5.578125 39.125 -5.578125 C 46.9375 -5.578125 53.347656 -8.179688 58.359375 -13.390625 L 62.734375 -9.015625 C 59.878906 -5.921875 56.390625 -3.550781 52.265625 -1.90625 C 48.148438 -0.257812 43.675781 0.5625 38.84375 0.5625 Z M 38.84375 0.5625 "/></g></g></g><g fill="#292b2a" fill-opacity="1"><g transform="translate(794.173094, 90.025213)"><g><path d="M 56.59375 -5.953125 L 56.59375 0 L 10.59375 0 L 10.59375 -65.0625 L 55.203125 -65.0625 L 55.203125 -59.109375 L 17.46875 -59.109375 L 17.46875 -35.96875 L 51.109375 -35.96875 L 51.109375 -30.109375 L 17.46875 -30.109375 L 17.46875 -5.953125 Z M 56.59375 -5.953125 "/></g></g></g><g fill="#292b2a" fill-opacity="1"><g transform="translate(875.85317, 90.025213)"><g/></g></g><g fill="#292b2a" fill-opacity="1"><g transform="translate(919.714457, 90.025213)"><g><path d="M 28.53125 0.5625 C 23.695312 0.5625 19.066406 -0.210938 14.640625 -1.765625 C 10.210938 -3.316406 6.789062 -5.363281 4.375 -7.90625 L 7.0625 -13.203125 C 9.414062 -10.847656 12.546875 -8.941406 16.453125 -7.484375 C 20.359375 -6.023438 24.382812 -5.296875 28.53125 -5.296875 C 34.351562 -5.296875 38.71875 -6.363281 41.625 -8.5 C 44.539062 -10.632812 46 -13.410156 46 -16.828125 C 46 -19.421875 45.207031 -21.492188 43.625 -23.046875 C 42.050781 -24.597656 40.117188 -25.789062 37.828125 -26.625 C 35.535156 -27.457031 32.34375 -28.375 28.25 -29.375 C 23.351562 -30.613281 19.445312 -31.804688 16.53125 -32.953125 C 13.625 -34.097656 11.132812 -35.847656 9.0625 -38.203125 C 6.988281 -40.554688 5.953125 -43.742188 5.953125 -47.765625 C 5.953125 -51.054688 6.816406 -54.046875 8.546875 -56.734375 C 10.285156 -59.429688 12.953125 -61.582031 16.546875 -63.1875 C 20.140625 -64.800781 24.597656 -65.609375 29.921875 -65.609375 C 33.640625 -65.609375 37.28125 -65.097656 40.84375 -64.078125 C 44.40625 -63.054688 47.488281 -61.648438 50.09375 -59.859375 L 47.765625 -54.375 C 45.046875 -56.164062 42.132812 -57.507812 39.03125 -58.40625 C 35.9375 -59.3125 32.898438 -59.765625 29.921875 -59.765625 C 24.222656 -59.765625 19.929688 -58.660156 17.046875 -56.453125 C 14.171875 -54.253906 12.734375 -51.421875 12.734375 -47.953125 C 12.734375 -45.347656 13.519531 -43.253906 15.09375 -41.671875 C 16.675781 -40.097656 18.660156 -38.890625 21.046875 -38.046875 C 23.429688 -37.210938 26.640625 -36.300781 30.671875 -35.3125 C 35.441406 -34.132812 39.296875 -32.972656 42.234375 -31.828125 C 45.179688 -30.679688 47.675781 -28.945312 49.71875 -26.625 C 51.757812 -24.300781 52.78125 -21.15625 52.78125 -17.1875 C 52.78125 -13.90625 51.894531 -10.914062 50.125 -8.21875 C 48.363281 -5.53125 45.65625 -3.394531 42 -1.8125 C 38.351562 -0.226562 33.863281 0.5625 28.53125 0.5625 Z M 28.53125 0.5625 "/></g></g></g><g fill="#292b2a" fill-opacity="1"><g transform="translate(996.376821, 90.025213)"><g><path d="M 23.234375 -59.109375 L 0.375 -59.109375 L 0.375 -65.0625 L 52.96875 -65.0625 L 52.96875 -59.109375 L 30.109375 -59.109375 L 30.109375 0 L 23.234375 0 Z M 23.234375 -59.109375 "/></g></g></g><g fill="#292b2a" fill-opacity="1"><g transform="translate(1069.229459, 90.025213)"><g><path d="M 36.796875 0.5625 C 28.367188 0.5625 21.800781 -1.851562 17.09375 -6.6875 C 12.382812 -11.519531 10.03125 -18.550781 10.03125 -27.78125 L 10.03125 -65.0625 L 16.921875 -65.0625 L 16.921875 -28.0625 C 16.921875 -20.507812 18.625 -14.875 22.03125 -11.15625 C 25.4375 -7.4375 30.359375 -5.578125 36.796875 -5.578125 C 43.304688 -5.578125 48.265625 -7.4375 51.671875 -11.15625 C 55.078125 -14.875 56.78125 -20.507812 56.78125 -28.0625 L 56.78125 -65.0625 L 63.46875 -65.0625 L 63.46875 -27.78125 C 63.46875 -18.550781 61.128906 -11.519531 56.453125 -6.6875 C 51.773438 -1.851562 45.222656 0.5625 36.796875 0.5625 Z M 36.796875 0.5625 "/></g></g></g><g fill="#292b2a" fill-opacity="1"><g transform="translate(1162.3388, 90.025213)"><g><path d="M 10.59375 -65.0625 L 37.078125 -65.0625 C 43.953125 -65.0625 50.023438 -63.679688 55.296875 -60.921875 C 60.566406 -58.160156 64.65625 -54.316406 67.5625 -49.390625 C 70.476562 -44.460938 71.9375 -38.84375 71.9375 -32.53125 C 71.9375 -26.207031 70.476562 -20.582031 67.5625 -15.65625 C 64.65625 -10.726562 60.566406 -6.882812 55.296875 -4.125 C 50.023438 -1.375 43.953125 0 37.078125 0 L 10.59375 0 Z M 36.703125 -5.953125 C 42.410156 -5.953125 47.398438 -7.082031 51.671875 -9.34375 C 55.941406 -11.601562 59.253906 -14.726562 61.609375 -18.71875 C 63.972656 -22.71875 65.15625 -27.320312 65.15625 -32.53125 C 65.15625 -37.726562 63.972656 -42.328125 61.609375 -46.328125 C 59.253906 -50.328125 55.941406 -53.457031 51.671875 -55.71875 C 47.398438 -57.976562 42.410156 -59.109375 36.703125 -59.109375 L 17.46875 -59.109375 L 17.46875 -5.953125 Z M 36.703125 -5.953125 "/></g></g></g><g fill="#292b2a" fill-opacity="1"><g transform="translate(1258.607522, 90.025213)"><g><path d="M 10.59375 -65.0625 L 17.46875 -65.0625 L 17.46875 0 L 10.59375 0 Z M 10.59375 -65.0625 "/></g></g></g><g fill="#292b2a" fill-opacity="1"><g transform="translate(1306.185655, 90.025213)"><g><path d="M 39.03125 0.5625 C 32.59375 0.5625 26.753906 -0.875 21.515625 -3.75 C 16.273438 -6.632812 12.179688 -10.585938 9.234375 -15.609375 C 6.296875 -20.628906 4.828125 -26.269531 4.828125 -32.53125 C 4.828125 -38.789062 6.296875 -44.425781 9.234375 -49.4375 C 12.179688 -54.457031 16.273438 -58.40625 21.515625 -61.28125 C 26.753906 -64.164062 32.59375 -65.609375 39.03125 -65.609375 C 45.476562 -65.609375 51.285156 -64.179688 56.453125 -61.328125 C 61.628906 -58.484375 65.703125 -54.535156 68.671875 -49.484375 C 71.648438 -44.441406 73.140625 -38.789062 73.140625 -32.53125 C 73.140625 -26.269531 71.648438 -20.613281 68.671875 -15.5625 C 65.703125 -10.519531 61.628906 -6.570312 56.453125 -3.71875 C 51.285156 -0.863281 45.476562 0.5625 39.03125 0.5625 Z M 39.03125 -5.578125 C 44.175781 -5.578125 48.820312 -6.738281 52.96875 -9.0625 C 57.125 -11.382812 60.378906 -14.601562 62.734375 -18.71875 C 65.085938 -22.84375 66.265625 -27.445312 66.265625 -32.53125 C 66.265625 -37.613281 65.085938 -42.210938 62.734375 -46.328125 C 60.378906 -50.453125 57.125 -53.675781 52.96875 -56 C 48.820312 -58.320312 44.175781 -59.484375 39.03125 -59.484375 C 33.882812 -59.484375 29.21875 -58.320312 25.03125 -56 C 20.851562 -53.675781 17.570312 -50.453125 15.1875 -46.328125 C 12.800781 -42.210938 11.609375 -37.613281 11.609375 -32.53125 C 11.609375 -27.445312 12.800781 -22.84375 15.1875 -18.71875 C 17.570312 -14.601562 20.851562 -11.382812 25.03125 -9.0625 C 29.21875 -6.738281 33.882812 -5.578125 39.03125 -5.578125 Z M 39.03125 -5.578125 "/></g></g></g></g></g></g><g clip-path="url(#66a3bdca72)"><g clip-path="url(#4721dbf034)"><g clip-path="url(#26515efd1e)"><path fill="#ad1867" d="M 1076.230469 195.410156 C 1076.421875 195.757812 1076.054688 198.203125 1075.929688 198.742188 C 1075.84375 199.113281 1075.527344 199.46875 1075.425781 199.894531 C 1073.253906 209.046875 1069.675781 217.5 1066.804688 226.421875 L 1077.203125 221.640625 L 1081.847656 213.449219 L 1080.890625 220.40625 C 1083.269531 220.285156 1085.707031 219.078125 1088.113281 219.222656 C 1089.59375 219.3125 1088.933594 220.296875 1087.988281 220.746094 C 1086.445312 221.476562 1083.015625 222.035156 1081.117188 222.671875 C 1076.746094 224.136719 1066.332031 228.238281 1064.726562 232.722656 C 1063.765625 235.410156 1063.144531 238.660156 1062.574219 241.429688 C 1062.28125 242.851562 1061.808594 244.25 1061.511719 245.671875 C 1061.675781 245.96875 1064.691406 244.644531 1065.230469 244.496094 C 1068.464844 243.613281 1071.550781 243.492188 1074.871094 244.09375 C 1082.308594 245.445312 1089.09375 248.246094 1095.285156 252.507812 C 1095.078125 251.953125 1094.324219 251.378906 1093.871094 250.992188 C 1088.324219 246.324219 1081.523438 243.640625 1074.453125 242.199219 C 1081.828125 232.355469 1094.554688 235.648438 1101.054688 244.8125 C 1104.332031 249.4375 1108.554688 261.5 1107.84375 267.085938 C 1107.816406 267.277344 1107.835938 267.679688 1107.597656 267.640625 C 1106.339844 266.707031 1104.722656 265.855469 1103.257812 265.316406 C 1092.699219 261.433594 1078.171875 265.53125 1073.78125 250.945312 C 1073.230469 249.113281 1073.195312 247.167969 1072.726562 245.390625 C 1069.660156 245.070312 1065.546875 245.890625 1062.960938 247.570312 C 1060.6875 249.046875 1060.949219 250.003906 1060.628906 252.484375 C 1059.421875 261.867188 1060.507812 272.640625 1063.066406 281.703125 L 1067.828125 294.792969 C 1062.1875 286.714844 1059.148438 277.324219 1057.722656 267.625 L 1048.472656 260.941406 C 1048.648438 260.53125 1049.800781 260.984375 1050.117188 261.085938 C 1051.042969 261.382812 1057.027344 263.613281 1057.371094 263.410156 C 1057.652344 261.058594 1057.507812 258.691406 1057.664062 256.335938 C 1057.777344 254.578125 1058.558594 250.277344 1058.320312 248.9375 C 1057.921875 246.699219 1053.554688 242.890625 1051.304688 242.402344 C 1049.195312 246.230469 1045.960938 249.3125 1041.753906 250.648438 C 1030.246094 254.304688 1022.085938 243.972656 1010.691406 245.402344 C 1016.722656 234.671875 1029.125 222.410156 1042.597656 227.109375 C 1047.117188 228.683594 1051.519531 234.003906 1051.636719 238.855469 C 1045.5 236.46875 1038.726562 236.070312 1032.253906 236.9375 L 1028.222656 237.929688 C 1032.039062 237.777344 1035.921875 237.316406 1039.742188 237.738281 C 1044.179688 238.234375 1050.769531 239.839844 1054.625 242.101562 C 1056.296875 243.082031 1057.457031 244.425781 1058.96875 245.558594 C 1059.65625 242.257812 1060.25 238.941406 1061.152344 235.679688 C 1062.417969 231.105469 1064.144531 229.722656 1062.414062 224.847656 C 1060.507812 219.472656 1056.367188 215.476562 1052.683594 211.351562 L 1052.796875 210.359375 C 1053.59375 209.878906 1057.625 214.261719 1058.667969 214.640625 C 1059.011719 214.507812 1060.011719 210.929688 1060.261719 210.269531 C 1060.394531 209.917969 1060.492188 209.535156 1060.960938 209.554688 C 1060.996094 211.617188 1060.324219 215.457031 1060.871094 217.332031 C 1061.140625 218.257812 1063.714844 222.636719 1064.398438 223.855469 C 1064.5625 224.152344 1064.472656 224.515625 1064.925781 224.164062 L 1068.988281 213.285156 C 1068.265625 209.867188 1066.460938 206.726562 1065.304688 203.4375 C 1065.761719 203.484375 1065.933594 203.921875 1066.214844 204.226562 C 1067.351562 205.484375 1068.648438 207.636719 1069.785156 208.664062 C 1070.039062 208.894531 1070.164062 209.109375 1070.582031 209.113281 C 1071.308594 206.496094 1072.382812 203.988281 1073.257812 201.421875 C 1073.835938 199.722656 1074.234375 197.28125 1074.949219 195.683594 C 1075.207031 195.101562 1075.882812 194.765625 1076.234375 195.414062 Z M 1076.230469 195.410156 " fill-opacity="1" fill-rule="nonzero"/></g></g></g><g clip-path="url(#e2cb93a2cb)"><g clip-path="url(#eed8810b9c)"><g clip-path="url(#be6eb82885)"><path fill="#ad1867" d="M 1080.375 172.730469 L 1077.371094 183.808594 L 1072.039062 179.402344 L 1076.898438 185.691406 C 1077.097656 186.476562 1075.964844 191 1075.617188 192 C 1075 193.761719 1071.570312 194.890625 1069.847656 194.730469 C 1066.695312 194.4375 1064.65625 191.886719 1063.449219 189.210938 C 1059.1875 179.742188 1065.351562 173.550781 1068.785156 165.28125 C 1070.609375 160.894531 1071.636719 156.726562 1071.144531 151.9375 C 1071.894531 151.621094 1077.371094 157.40625 1077.183594 158.710938 C 1076.980469 160.105469 1070.804688 165.527344 1070.328125 167.667969 L 1077.515625 160.628906 L 1080.480469 156.832031 C 1080.679688 156.820312 1080.847656 156.902344 1081.011719 157.003906 C 1081.617188 157.359375 1084.804688 161.878906 1085.417969 162.796875 C 1088.007812 166.683594 1090.171875 170.890625 1091.597656 175.339844 L 1092.613281 180.390625 C 1093.082031 175.703125 1091.585938 170.878906 1089.449219 166.753906 C 1089.003906 165.894531 1086.363281 162.027344 1086.492188 161.523438 C 1090.03125 158.253906 1094.734375 156.527344 1099.46875 155.875 C 1098.164062 158.921875 1096.773438 161.601562 1096.226562 164.933594 C 1094.613281 174.773438 1100.679688 183.363281 1092.015625 191.53125 C 1090.511719 192.945312 1090.210938 193.136719 1088.835938 194.796875 C 1085.101562 199.308594 1079.875 198.246094 1077.214844 193.277344 L 1080.378906 172.734375 Z M 1080.375 172.730469 " fill-opacity="1" fill-rule="nonzero"/></g></g></g><g clip-path="url(#c51c28b61a)"><g clip-path="url(#7b22af3b1a)"><g clip-path="url(#b7154468fa)"><path fill="#ad1867" d="M 1127.632812 207.074219 L 1115.863281 222.574219 L 1111.457031 226.703125 C 1116.589844 224.261719 1120.148438 219.554688 1123.375 215.03125 C 1127.324219 216.707031 1131.421875 220.050781 1133.648438 223.730469 C 1133.832031 224.035156 1134.101562 224.171875 1133.628906 224.371094 C 1130.339844 224.105469 1126.703125 224.453125 1123.527344 225.378906 C 1116.214844 227.511719 1109.257812 234.644531 1101.121094 232.621094 C 1100.203125 232.394531 1099.039062 231.570312 1098.097656 231.335938 C 1097.160156 231.105469 1095.796875 231.28125 1094.855469 231.039062 C 1089.277344 229.605469 1087.585938 224.042969 1091.566406 219.835938 L 1110.34375 213.578125 L 1100.667969 215.285156 L 1103.5 208.539062 L 1098.292969 215.960938 C 1098.015625 216.1875 1092.023438 217.902344 1091.449219 217.945312 C 1089.171875 218.109375 1087.3125 214.148438 1087.175781 212.191406 C 1086.589844 203.773438 1095.914062 199.375 1103.175781 199.800781 C 1111.621094 200.296875 1119.914062 203.863281 1127.632812 207.074219 Z M 1127.632812 207.074219 " fill-opacity="1" fill-rule="nonzero"/></g></g></g><g clip-path="url(#9599ac0681)"><g clip-path="url(#73220a4ab3)"><g clip-path="url(#216bd25f82)"><path fill="#ad1867" d="M 1045.261719 194.09375 C 1044.824219 193.929688 1044.933594 194.554688 1044.898438 194.824219 C 1044.605469 197.046875 1044.730469 199.367188 1044.429688 201.59375 C 1041.785156 199.597656 1039.273438 197.402344 1036.855469 195.140625 C 1036.667969 194.972656 1036.378906 194.457031 1036.101562 194.773438 C 1038.203125 197.160156 1040.394531 199.484375 1042.613281 201.765625 C 1043.890625 203.078125 1050.238281 208.917969 1050.550781 209.953125 C 1051.0625 211.640625 1050.367188 214.582031 1049.28125 215.96875 C 1047.097656 218.753906 1043.824219 218.113281 1040.878906 217.429688 C 1035.148438 216.105469 1031.542969 215.371094 1027.5625 210.625 C 1025.792969 208.515625 1024.601562 205.933594 1022.949219 203.726562 C 1019.890625 199.644531 1015.730469 195.699219 1010.839844 194.03125 C 1010.601562 193.707031 1012.8125 192.699219 1013.136719 192.550781 C 1016.546875 191.003906 1020.542969 190.199219 1024.292969 190.449219 C 1025.164062 195.738281 1025.988281 201.378906 1029.25 205.796875 L 1027.464844 200.386719 C 1025.90625 194.1875 1025.628906 187.761719 1024.488281 181.484375 C 1033.503906 182.53125 1044.128906 182.984375 1052.070312 187.828125 C 1057.675781 191.246094 1061.742188 200.0625 1057.144531 205.773438 C 1055.925781 207.289062 1053.023438 209.132812 1051.148438 207.945312 C 1050.652344 207.632812 1046.5625 203.660156 1046.335938 203.226562 C 1045.359375 201.363281 1045.722656 196.328125 1045.261719 194.089844 Z M 1045.261719 194.09375 " fill-opacity="1" fill-rule="nonzero"/></g></g></g><g clip-path="url(#dad3e18edb)"><g clip-path="url(#1ab2b6a421)"><g clip-path="url(#1881cad688)"><path fill="#ad1867" d="M 1044.09375 183.261719 C 1039.507812 181.925781 1034.765625 181.425781 1030.0625 180.707031 C 1029.925781 176.863281 1031.53125 173.175781 1033.058594 169.734375 C 1033.460938 169.472656 1034.464844 172.242188 1034.65625 172.574219 C 1035.933594 174.792969 1037.757812 177.066406 1039.542969 178.898438 C 1041.015625 180.414062 1042.8125 181.636719 1044.09375 183.261719 Z M 1044.09375 183.261719 " fill-opacity="1" fill-rule="nonzero"/></g></g></g><g clip-path="url(#1b5f749156)"><g clip-path="url(#fcd2b9bbd1)"><g clip-path="url(#444b07ef79)"><path fill="#ad1867" d="M 1109.46875 199.480469 C 1110.332031 198.835938 1111.652344 198.824219 1112.703125 198.527344 C 1117.953125 197.0625 1120.222656 195.574219 1124.734375 192.863281 C 1125.039062 192.679688 1125.175781 192.410156 1125.375 192.882812 C 1125.339844 196.570312 1124.929688 200.613281 1122.828125 203.710938 C 1118.496094 201.945312 1114.058594 200.460938 1109.46875 199.480469 Z M 1109.46875 199.480469 " fill-opacity="1" fill-rule="nonzero"/></g></g></g></g></g></g></svg>